<svg id="Layer_1" data-name="Layer 1" xmlns="http://www.w3.org/2000/svg" viewBox="0 0 250 250"><defs><style>.cls-1{fill:#b3b3b3;}.cls-2{fill:#42210b;}.cls-3{fill:#c7987f;}.cls-4{fill:#dcb9a7;}.cls-5{fill:#c1272d;}.cls-6{fill:#fff;}</style></defs><title>avi</title><circle class="cls-1" cx="125" cy="125" r="125"/><path class="cls-2" d="M70.19,150.64,56.73,123.72H53.53L45.83,89.1,58,52.56,85.58,30.13l41.67-12.82S176,37.82,176,38.46,199,66.67,199,66.67l5.13,22.44-9,42.95-6.41-2.56L173.4,162.18Z"/><polygon class="cls-3" points="54.81 112.18 50.32 116.03 52.24 134.62 54.81 137.82 58.01 152.56 65.06 163.46 68.27 159.62 68.27 115.39 54.81 112.18"/><path class="cls-3" d="M178.53,125.64s9.62-3.85,10.26-3.85,5.13,2.56,5.13,2.56l2.56,5.13-1.92,12.82-4.49,5.77-2.56,12.18-5.13,7.69-5.13-3.21Z"/><path class="cls-4" d="M120.83,57.05s-35.26-3.21-35.9-2.56S65.06,77.56,65.71,78.85s1.92,16.67,1.92,16.67L62.5,142.31l5.13,40.38,24.36,34,19.23,16h19.23l25.64-12.82,21.15-26.92,5.13-20.51V139.1l-1.92-12.82,1.92-29.49L172.12,69.87,150.32,52.56Z"/><polygon class="cls-2" points="137.82 107.37 134.62 116.35 152.56 111.22 164.1 111.86 176.28 120.19 169.87 111.22 161.54 104.81 149.36 104.81 137.82 107.37"/><circle class="cls-2" cx="149.68" cy="123.72" r="6.41"/><circle class="cls-2" cx="98.4" cy="119.87" r="6.41"/><path class="cls-2" d="M106.73,103.21l5.13,9-16-4.49H83l-10.26,4.49,9-9c1.28-1.28,7.05-2.56,7.05-2.56Z"/><polygon class="cls-2" points="182.37 172.44 182.37 167.99 174.04 172.44 174.04 180.77 161.22 193.59 143.91 212.82 130.45 225 118.91 225 100.96 216.03 95.19 200 70.19 162.18 65.21 163.67 67.63 182.69 91.99 216.67 111.22 232.69 130.45 232.69 156.09 219.87 177.24 192.95 182.37 172.44"/><polygon class="cls-2" points="91.99 164.74 84.94 175 111.86 171.79 134.29 173.08 161.22 175 155.45 164.74 91.99 164.74"/><path class="cls-2" d="M111.86,194.87h22.44l-3.21,5.77h-16Z"/><polygon class="cls-5" points="101.6 177.56 149.68 177.56 136.86 191.67 111.86 191.67 101.6 177.56"/><polygon class="cls-6" points="105.33 182.69 145.02 182.69 149.68 177.56 101.6 177.56 105.33 182.69"/><path class="cls-3" d="M116.51,148.4s-5.77,10.9-4.49,10.9,14.1,1.92,14.1,1.92Z"/></svg>