<?xml version="1.0" encoding="UTF-8"?>
<svg width="360px" height="272px" viewBox="0 0 360 272" version="1.1" xmlns="http://www.w3.org/2000/svg" xmlns:xlink="http://www.w3.org/1999/xlink">
    <!-- Generator: Sketch 49.1 (51147) - http://www.bohemiancoding.com/sketch -->
    <title>orig copy</title>
    <desc>Created with Sketch.</desc>
    <defs></defs>
    <g id="orig-copy" stroke="none" stroke-width="1" fill="none" fill-rule="evenodd">
        <g id="Group" fill="#FFFFFF" fill-rule="nonzero">
            <path d="M82.04,208.28 C90.7041155,213.372125 99.6371468,217.992198 108.8,222.12 C133.6,233.44 158.68,241.8 177.36,252 C178.52,252.6 179.64,253.24 180.72,253.88 C173.23204,258.125925 166.588319,263.712074 161.12,270.36 L162.44,271.28 C167.957345,264.607651 174.655579,259.00771 182.2,254.76 C189.422254,258.872603 195.812012,264.299149 201.04,270.76 L202.4,269.84 C197.206084,263.40735 190.874261,257.983948 183.72,253.84 C198.084768,246.218354 212.929338,239.537629 228.16,233.84 C236.44,230.44 245.2,226.76 254.08,222.68 C342.92,181.48 362.28,113.68 330.4,39.76 L329.64,40.12 C360.52,112.52 343,180.12 253.64,221.36 C244.76,225.36 236.04,229.04 227.72,232.44 C212.187366,238.312694 197.049331,245.180258 182.4,253 C181.08,252.2 179.72,251.44 178.4,250.68 C159.56,240.44 134.4,232.16 109.64,220.88 C100.510166,216.808967 91.6161632,212.228422 83,207.16 C19.04,169.32 4.36,106.36 32.48,40 L31.64,39.76 C3.32,106.44 17.84,169.96 82.04,208.28 Z" id="Shape"></path>
            <path d="M155.24,237.76 C156.92,231.12 156.48,223.44 142.6,212.24 C139.200091,209.562764 135.661882,207.06599 132,204.76 C133,227.76 145.68,230.6 155.24,237.76 Z" id="Shape"></path>
            <path d="M122.28,222.52 C125.88,225.08 129.32,227 130.76,227.92 C133.32,214.36 120.44,203.92 108.96,195.92 C108.610399,202.071713 109.996409,208.197878 112.96,213.6 C115.459021,217.149417 118.624441,220.178983 122.28,222.52 Z" id="Shape"></path>
            <path d="M106.64,217.64 C108.92,205.64 99.56,195.4 88.04,185.2 C85,202.44 95.28,210.4 106.64,217.64 Z" id="Shape"></path>
            <path d="M83.52,205.64 C85.92,195.84 80.36,185.28 69.84,172.52 C64.6,186.32 71.28,196.76 83.52,205.64 Z" id="Shape"></path>
            <path d="M62.32,190.96 C66.04,180.68 60.36,166.96 55.08,157.16 C48.88,166.36 49.36,178.12 62.32,190.96 Z" id="Shape"></path>
            <path d="M44.28,138.88 C34.28,148.4 36.68,161.4 44.28,172.84 C49.64,163.36 47.16,149.24 44.28,138.88 Z" id="Shape"></path>
            <path d="M37.6,118 C30.52,122.56 24.48,133.28 31.12,151.28 C37.92,142.88 38.76,128 37.6,118 Z" id="Shape"></path>
            <path d="M34.04,104.8 C34.6480971,101.897423 35.0623458,98.9575937 35.28,96 C27.28,99.36 20.16,108.72 23.28,127.52 C29.06631,121.198671 32.8156554,113.281837 34.04,104.8 Z" id="Shape"></path>
            <path d="M37.16,73 C29.44,75 20.76,83.12 20.36,102.28 C30.8,94.44 36,80 37.16,73 Z" id="Shape"></path>
            <path d="M42.8,50.2 C30.2,51.8 24.92,65.2 22.36,77.04 C32.0885676,70.7439553 39.316933,61.2523052 42.8,50.2 Z" id="Shape"></path>
            <path d="M28.6,52.36 C38.9331779,47.2264673 47.1111389,38.5949626 51.68,28 C37.04,28 30.76,46.64 28.6,52.36 Z" id="Shape"></path>
            <path d="M53.76,0.72 C38.16,13.24 33,27 33.76,36.28 C42.48,31.12 50.64,10.24 53.76,0.72 Z" id="Shape"></path>
            <path d="M151.44,242.96 C149.16,242.6 135.72,238.6 127.44,240.56 C121.144664,242.214497 115.2608,245.15643 110.16,249.2 C114.649887,250.419995 119.22167,251.315637 123.84,251.88 C141.6,253.84 147.68,248.4 151.44,242.96 Z" id="Shape"></path>
            <path d="M100.56,228.24 C94.1021325,229.394106 87.8996882,231.682781 82.24,235 C86.7151785,236.6906 91.3159191,238.028024 96,239 C101.926505,240.200277 108.033495,240.200277 113.96,239 C118.247681,237.960898 121.996694,235.366523 124.48,231.72 C123.24,231.52 119.36,230.36 114.76,229.4 C110.11907,228.256979 105.324909,227.865343 100.56,228.24 Z" id="Shape"></path>
            <path d="M55.04,217.08 C59.2644213,219.511254 63.7112511,221.533758 68.32,223.12 C85.32,228.84 93,224.52 97.72,219.48 C95.24,218.88 82.48,213.52 74.52,213.52 C67.8864291,213.737585 61.3217512,214.93729 55.04,217.08 Z" id="Shape"></path>
            <path d="M30.72,193.8 C34.2970947,197.188685 38.2415558,200.167156 42.48,202.68 C57.52,211.48 66.48,209 72.28,204.64 C61.36,200 57.56,192.72 30.72,193.8 Z" id="Shape"></path>
            <path d="M49.64,185.84 C37.84,177.44 38.52,171.56 12.4,165.12 C20.6,178.32 34.76,192 49.64,185.84 Z" id="Shape"></path>
            <path d="M2.4,133.52 C3.69048944,137.914443 5.4611698,142.153345 7.68,146.16 C15.68,160.6 24.4,163.28 32.04,162.48 C23.24,152 26.04,146.44 2.4,133.52 Z" id="Shape"></path>
            <path d="M21.16,135.68 C15.72,124 19.48,119.12 0,101.2 C1.12,116 5.96,132.92 21.16,135.68 Z" id="Shape"></path>
            <path d="M16.92,107.24 C14.64,94.4 18.72,90.2 4.44,69.76 C2.44,84.24 3.36,100.84 16.92,107.24 Z" id="Shape"></path>
            <path d="M18.92,78.64 C19.48,66.64 24.16,62.36 14.36,40.2 C9.84,53.72 7.64,69.52 18.92,78.64 Z" id="Shape"></path>
            <path d="M28.52,12.84 C22,25.28 17.36,39.88 26.28,50.92 C28.92,38.96 34.28,36.76 28.52,12.84 Z" id="Shape"></path>
            <path d="M220,241.36 C215.32,242.16 211.36,243.28 210.12,243.48 C212.453897,247.23791 216.081869,250.012242 220.32,251.28 C226.033464,252.777593 231.98235,253.157887 237.84,252.4 C242.443189,251.842473 247.001214,250.960275 251.48,249.76 C246.382339,245.693777 240.499289,242.725016 234.2,241.04 C229.485945,240.291746 224.675562,240.400149 220,241.36 Z" id="Shape"></path>
            <path d="M244.24,230.96 C239.8,231.8 235.96,232.92 234.28,233.28 C236.908973,236.932579 240.775517,239.505537 245.16,240.52 C255.568518,242.186742 266.234768,240.969323 276,237 C266.779313,230.50176 255.202349,228.300096 244.24,230.96 Z" id="Shape"></path>
            <path d="M274.72,217.92 C269.216274,219.097436 263.792197,220.620452 258.48,222.48 C268.4,233.28 287.12,228.36 300.4,221.56 C292.364439,217.91513 283.451957,216.651835 274.72,217.92 Z" id="Shape"></path>
            <path d="M323,202.2 C304.56,197.88 289.72,206.2 281.88,209.92 C293.12,218.84 311.56,211.24 323,202.2 Z" id="Shape"></path>
            <path d="M341.56,178.36 C324.12,178.36 310.24,189.72 303.44,194.36 C316.2,200.72 332.68,189.72 341.56,178.36 Z" id="Shape"></path>
            <path d="M321.72,175.36 C335.36,177.88 348.84,163.76 354,151.16 C338.36,154.56 327,169.52 321.72,175.36 Z" id="Shape"></path>
            <path d="M335.12,152.8 C349.84,151.2 358.4,132.8 359.92,122.8 C346.16,128.8 338.84,145.56 335.12,152.8 Z" id="Shape"></path>
            <path d="M342.88,128 C354.88,123.16 360.6,106.88 359.96,94.28 C348,102.2 344.68,121.24 342.88,128 Z" id="Shape"></path>
            <path d="M354.8,66.84 C344.56,76.32 345.68,96.2 345.36,102.28 C356,94.48 357.72,78.28 354.8,66.84 Z" id="Shape"></path>
            <path d="M345.44,40.96 C337.44,51.04 341.44,68.6 342.8,76.6 C351.24,66.2 350,50.76 345.44,40.96 Z" id="Shape"></path>
            <path d="M332.76,16.88 C326.16,27.68 333.6,44.08 336,51.76 C341.086549,40.3655208 339.858276,27.1426319 332.76,16.88 Z" id="Shape"></path>
            <path d="M328.6,36.44 C330.16,29.68 323,11.24 307.72,1.6 C310,6.8 316.48,26.8 328.6,36.44 Z" id="Shape"></path>
            <path d="M232,204.28 C218.88,212.8 205.08,222.76 208.64,237.24 C218.24,230 230.92,227.24 232,204.28 Z" id="Shape"></path>
            <path d="M244,220.96 C252,215.24 257.6,208.96 257.2,193.68 C244,203.72 233.2,212.8 235.8,226.28 C236.76,225.56 240.24,223.64 244,220.96 Z" id="Shape"></path>
            <path d="M269.88,208.84 C277.2,202.8 282.12,195.88 279.64,181.24 C268.4,192.6 259.28,201.56 262.28,214.52 C263.2,213.76 266.48,211.68 269.88,208.84 Z" id="Shape"></path>
            <path d="M298.36,165.96 C288.76,180.84 283.48,189.04 287.28,200.36 C293.52,193.84 306.28,186.2 298.36,165.96 Z" id="Shape"></path>
            <path d="M311.32,180 C312.418721,178.497157 313.433599,176.934778 314.36,175.32 C319.2,166.96 320.2,158.84 312.4,147.6 C306.2,165.32 304.4,173.12 309.32,182.68 C309.64,182 310.36,181.08 311.32,180 Z" id="Shape"></path>
            <path d="M324.36,157.48 C325.008885,158.455707 325.716875,159.390789 326.48,160.28 C326.92,158.96 332.36,148.28 330.48,139.96 C328.902811,134.348131 325.784997,129.290344 321.48,125.36 C320.48,134.52 318.08,148 324.36,157.48 Z" id="Shape"></path>
            <path d="M337.28,134.6 C337.28,134.04 337.52,132.92 337.76,131.48 C337.76,130.72 338,129.88 338.12,129 L338.12,127.6 L338.12,126.12 C338.459467,122.038017 337.857337,117.932585 336.36,114.12 C333.66677,108.944246 329.685479,104.549672 324.8,101.36 C326.56,117.08 328,127.04 337.28,134.6 Z" id="Shape"></path>
            <path d="M323.48,76.4 C324.48,80.04 327.88,94 334.28,101.32 C334.882331,102.022419 335.537581,102.677669 336.24,103.28 C337.907767,104.818416 339.746444,106.160516 341.72,107.28 C340.72,98.72 342.92,86.2 323.48,76.4 Z" id="Shape"></path>
            <path d="M317.2,51.4 C323.08,64.4 328,74.68 340,79.2 C337.52,70.96 337.64,59.08 317.2,51.4 Z" id="Shape"></path>
            <path d="M333.24,52 C329.24,43.68 327.48,32.76 306.92,27.2 C314.72,40 320.96,48.92 333.24,52 Z" id="Shape"></path>
        </g>
        <path d="M125.242,47.48 L116.35,47.48 C115.653997,47.48 115.156001,47.6239986 114.856,47.912 C114.555998,48.2000014 114.406,48.6679968 114.406,49.316 L114.406,53.564 L123.91,53.564 L123.91,57.56 L114.406,57.56 L114.406,68 L108.898,68 L108.898,48.2 C108.898,46.6159921 109.395995,45.3620046 110.392,44.438 C111.388005,43.5139954 112.713992,43.052 114.37,43.052 C119.650026,43.052 123.369989,43.1839987 125.53,43.448 L125.242,47.48 Z M134.386,68 L128.914,68 L128.914,43.16 L134.386,43.16 L134.386,68 Z M160.378,43.16 L160.378,66.02 C160.378,67.3400066 159.730006,68 158.434,68 L155.014,68 C154.461997,68 154.030002,67.8740013 153.718,67.622 C153.405998,67.3699987 153.106001,66.9560029 152.818,66.38 L146.302,53.132 C145.485996,51.3799912 144.982001,50.0960041 144.79,49.28 L144.394,49.28 C144.562001,50.480006 144.646,51.7999928 144.646,53.24 L144.646,68 L139.426,68 L139.426,45.14 C139.426,43.8199934 140.085993,43.16 141.406,43.16 L144.754,43.16 C145.306003,43.16 145.737998,43.2859987 146.05,43.538 C146.362002,43.7900013 146.661999,44.2039971 146.95,44.78 L153.25,57.632 C153.850003,58.832006 154.449997,60.1639927 155.05,61.628 L155.41,61.628 C155.265999,59.7559906 155.194,58.3640046 155.194,57.452 L155.194,43.16 L160.378,43.16 Z M178.882,61.484 L170.35,61.484 L168.55,68 L162.934,68 L170.098,44.6 C170.194,44.1679978 170.421998,43.8200013 170.782,43.556 C171.142002,43.2919987 171.549998,43.16 172.006,43.16 L177.19,43.16 C178.222005,43.16 178.857999,43.6399952 179.098,44.6 L186.262,68 L180.682,68 L178.882,61.484 Z M177.694,57.236 L175.606,49.64 C175.317999,48.439994 175.15,47.6600018 175.102,47.3 L174.13,47.3 C174.082,47.5400012 173.998001,47.9239974 173.878,48.452 C173.757999,48.9800026 173.662,49.3759987 173.59,49.64 L171.502,57.236 L177.694,57.236 Z M194.218,43.16 L194.218,61.7 C194.218,62.3480032 194.367998,62.8159986 194.668,63.104 C194.968002,63.3920014 195.465997,63.536 196.162,63.536 L204.694,63.536 L204.946,67.712 C202.521988,67.9760013 199.018023,68.108 194.434,68.108 C192.51399,68.108 191.086005,67.6280048 190.15,66.668 C189.213995,65.7079952 188.746,64.424008 188.746,62.816 L188.746,43.16 L194.218,43.16 Z M213.442,68 L207.97,68 L207.97,43.16 L213.442,43.16 L213.442,68 Z M227.662,58.604 L222.658,56.84 C220.809991,56.1679966 219.490004,55.2560058 218.698,54.104 C217.905996,52.9519942 217.51,51.4400094 217.51,49.568 C217.51,46.8319863 218.175993,45.0020046 219.508,44.078 C220.840007,43.1539954 223.185983,42.692 226.546,42.692 C229.714016,42.692 232.437989,43.0159968 234.718,43.664 L234.358,47.408 C232.26999,47.3359996 229.678015,47.3 226.582,47.3 C225.141993,47.3 224.182002,47.4259987 223.702,47.678 C223.221998,47.9300013 222.982,48.559995 222.982,49.568 C222.982,50.3840041 223.161998,50.9719982 223.522,51.332 C223.882002,51.6920018 224.565995,52.0399983 225.574,52.376 L230.29,53.996 C232.21001,54.6680034 233.565996,55.5859942 234.358,56.75 C235.150004,57.9140058 235.546,59.4319906 235.546,61.304 C235.546,64.0880139 234.874007,65.977995 233.53,66.974 C232.185993,67.970005 229.786017,68.468 226.33,68.468 C223.521986,68.468 220.678014,68.1560031 217.798,67.532 L218.122,63.572 C223.234026,63.6920006 225.969998,63.752 226.33,63.752 C227.794007,63.752 228.771998,63.5960016 229.264,63.284 C229.756002,62.9719984 230.002,62.3240049 230.002,61.34 C230.002,60.4999958 229.834002,59.9060017 229.498,59.558 C229.161998,59.2099983 228.550004,58.8920014 227.662,58.604 Z M257.902,47.624 L250.486,47.624 L250.486,68 L244.978,68 L244.978,47.624 L237.562,47.624 L237.562,43.16 L257.902,43.16 L257.902,47.624 Z" id="FINALIST" fill="#FFFFFF"></path>
        <path d="M63.85,100.276 L63.458,97.476 C65.9406791,97.0279978 68.3393218,96.804 70.654,96.804 C72.520676,96.804 73.8926623,97.1819962 74.77,97.938 C75.6473377,98.6940038 76.086,100.005324 76.086,101.872 L76.086,111 L72.81,111 L72.39,108.9 C71.0086598,110.524008 69.3100101,111.336 67.294,111.336 C65.96866,111.336 64.8860042,110.986003 64.046,110.286 C63.2059958,109.585996 62.786,108.610673 62.786,107.36 L62.786,105.96 C62.786,104.858661 63.1593296,104.000003 63.906,103.384 C64.6526704,102.767997 65.68866,102.46 67.014,102.46 L71.942,102.46 L71.942,101.844 C71.9233332,101.134663 71.7600015,100.658668 71.452,100.416 C71.1439985,100.173332 70.5513377,100.052 69.674,100.052 C68.1433257,100.052 66.2020118,100.126666 63.85,100.276 Z M66.874,106.268 L66.874,106.8 C66.874,107.752005 67.4153279,108.228 68.498,108.228 C69.6180056,108.228 70.7659941,107.780004 71.942,106.884 L71.942,104.952 L68.218,104.952 C67.3219955,104.970667 66.874,105.409329 66.874,106.268 Z M83.506,91.4 L83.506,106.492 C83.506,107.425338 84.0286614,107.892 85.074,107.892 L86.194,107.892 L86.67,110.776 C85.9606631,111.149335 84.8593408,111.336 83.366,111.336 C82.1339938,111.336 81.1633369,111.00467 80.454,110.342 C79.7446631,109.67933 79.39,108.741339 79.39,107.528 L79.39,91.4 L83.506,91.4 Z M93.558,99.968 L93.558,106.492 C93.558,107.014669 93.6699989,107.378666 93.894,107.584 C94.1180011,107.789334 94.5099972,107.892 95.07,107.892 L96.834,107.892 L97.282,110.776 C96.2179947,111.149335 94.9206743,111.336 93.39,111.336 C92.1393271,111.336 91.1686701,110.986003 90.478,110.286 C89.7873299,109.585996 89.442,108.610673 89.442,107.36 L89.442,99.968 L87.006,99.968 L87.006,97.336 L89.442,97.196 L89.442,93.332 L93.558,93.332 L93.558,97.196 L97.394,97.196 L97.394,99.968 L93.558,99.968 Z M100.866,106.772 L101.986,106.772 C102.527336,106.772 102.905332,106.874666 103.12,107.08 C103.334668,107.285334 103.442,107.658664 103.442,108.2 L103.442,109.544 C103.442,110.085336 103.334668,110.463332 103.12,110.678 C102.905332,110.892668 102.527336,111 101.986,111 L100.866,111 C100.324664,111 99.9466677,110.892668 99.732,110.678 C99.5173323,110.463332 99.41,110.085336 99.41,109.544 L99.41,108.2 C99.41,107.658664 99.5173323,107.285334 99.732,107.08 C99.9466677,106.874666 100.324664,106.772 100.866,106.772 Z M117.89,107.724 L118.254,110.412 C116.835326,111.028003 115.052677,111.336 112.906,111.336 C110.367321,111.336 108.580005,110.790005 107.544,109.698 C106.507995,108.605995 105.99,106.73468 105.99,104.084 C105.99,101.414653 106.512661,99.5340055 107.558,98.442 C108.603339,97.3499945 110.404654,96.804 112.962,96.804 C115.052677,96.804 116.751327,97.0933304 118.058,97.672 L117.61,100.248 C115.59399,100.210666 114.278003,100.192 113.662,100.192 C112.39266,100.192 111.520002,100.462664 111.044,101.004 C110.567998,101.545336 110.33,102.571992 110.33,104.084 C110.33,105.596008 110.567998,106.622664 111.044,107.164 C111.520002,107.705336 112.39266,107.976 113.662,107.976 C115.286008,107.976 116.695327,107.892001 117.89,107.724 Z M126.15,99.968 L126.15,106.492 C126.15,107.014669 126.261999,107.378666 126.486,107.584 C126.710001,107.789334 127.101997,107.892 127.662,107.892 L129.426,107.892 L129.874,110.776 C128.809995,111.149335 127.512674,111.336 125.982,111.336 C124.731327,111.336 123.76067,110.986003 123.07,110.286 C122.37933,109.585996 122.034,108.610673 122.034,107.36 L122.034,99.968 L119.598,99.968 L119.598,97.336 L122.034,97.196 L122.034,93.332 L126.15,93.332 L126.15,97.196 L129.986,97.196 L129.986,99.968 L126.15,99.968 Z M142.194,96.804 L141.774,100.64 L140.654,100.64 C139.739329,100.64 138.33001,100.95733 136.426,101.592 L136.426,111 L132.282,111 L132.282,97.196 L135.502,97.196 L135.866,99.212 C137.751343,97.6066586 139.617991,96.804 141.466,96.804 L142.194,96.804 Z M148.326,91.4 L148.326,106.492 C148.326,107.425338 148.848661,107.892 149.894,107.892 L151.014,107.892 L151.49,110.776 C150.780663,111.149335 149.679341,111.336 148.186,111.336 C146.953994,111.336 145.983337,111.00467 145.274,110.342 C144.564663,109.67933 144.21,108.741339 144.21,107.528 L144.21,91.4 L148.326,91.4 Z M154.514,106.772 L155.634,106.772 C156.175336,106.772 156.553332,106.874666 156.768,107.08 C156.982668,107.285334 157.09,107.658664 157.09,108.2 L157.09,109.544 C157.09,110.085336 156.982668,110.463332 156.768,110.678 C156.553332,110.892668 156.175336,111 155.634,111 L154.514,111 C153.972664,111 153.594668,110.892668 153.38,110.678 C153.165332,110.463332 153.058,110.085336 153.058,109.544 L153.058,108.2 C153.058,107.658664 153.165332,107.285334 153.38,107.08 C153.594668,106.874666 153.972664,106.772 154.514,106.772 Z M175.094,99.856 L175.094,111 L171.958,111 L171.566,109.068 C170.072659,110.598674 168.215344,111.364 165.994,111.364 C163.828656,111.364 162.260672,110.570675 161.29,108.984 C160.319328,107.397325 159.834,104.830684 159.834,101.284 C159.834,97.5133145 160.473327,94.9093405 161.752,93.472 C163.030673,92.0346595 165.275317,91.316 168.486,91.316 C170.819345,91.316 172.797992,91.5399978 174.422,91.988 L174.086,95.124 C171.976656,95.0306662 170.156674,94.984 168.626,94.984 C167.767329,94.984 167.090669,95.0539993 166.596,95.194 C166.101331,95.3340007 165.667335,95.637331 165.294,96.104 C164.920665,96.570669 164.668667,97.2193292 164.538,98.05 C164.407333,98.8806708 164.342,100.005326 164.342,101.424 C164.342,103.832012 164.565998,105.483996 165.014,106.38 C165.462002,107.276004 166.292661,107.724 167.506,107.724 C168.626006,107.724 169.783327,107.397337 170.978,106.744 L170.978,99.856 L175.094,99.856 Z M178.538,111 L178.538,91.68 C181.18868,91.5119992 183.689988,91.428 186.042,91.428 C189.122015,91.428 191.263994,92.1373262 192.468,93.556 C193.672006,94.9746738 194.274,97.5693145 194.274,101.34 C194.274,105.110686 193.672006,107.705326 192.468,109.124 C191.263994,110.542674 189.122015,111.252 186.042,111.252 C183.689988,111.252 181.18868,111.168001 178.538,111 Z M182.794,94.788 L182.794,107.864 C183.111335,107.864 183.62933,107.868667 184.348,107.878 C185.06667,107.887333 185.631331,107.892 186.042,107.892 C187.479341,107.892 188.463997,107.434671 188.996,106.52 C189.528003,105.605329 189.794,103.878679 189.794,101.34 C189.794,98.8013206 189.528003,97.0700046 188.996,96.146 C188.463997,95.2219954 187.479341,94.76 186.042,94.76 L182.794,94.788 Z M210.878,107.388 L211.242,110.552 C209.561992,111.074669 207.499346,111.336 205.054,111.336 C202.067318,111.336 199.967339,110.589341 198.754,109.096 C197.540661,107.602659 196.934,105.017352 196.934,101.34 C196.934,97.6626483 197.540661,95.0773408 198.754,93.584 C199.967339,92.0906592 202.067318,91.344 205.054,91.344 C207.219344,91.344 209.151325,91.5586645 210.85,91.988 L210.486,95.18 C208.973992,95.0866662 207.163344,95.04 205.054,95.04 C203.653993,95.04 202.697336,95.4833289 202.184,96.37 C201.670664,97.2566711 201.414,98.9133212 201.414,101.34 C201.414,103.766679 201.670664,105.423329 202.184,106.31 C202.697336,107.196671 203.653993,107.64 205.054,107.64 C207.64868,107.64 209.589994,107.556001 210.878,107.388 Z M229.89,105.932 L223.254,105.932 L221.854,111 L217.486,111 L223.058,92.8 C223.132667,92.4639983 223.309999,92.1933344 223.59,91.988 C223.870001,91.7826656 224.187332,91.68 224.542,91.68 L228.574,91.68 C229.376671,91.68 229.871332,92.0533296 230.058,92.8 L235.63,111 L231.29,111 L229.89,105.932 Z M228.966,102.628 L227.342,96.72 C227.117999,95.786662 226.987334,95.1800014 226.95,94.9 L226.194,94.9 C226.156666,95.0866676 226.091334,95.3853313 225.998,95.796 C225.904666,96.2066687 225.83,96.5146656 225.774,96.72 L224.15,102.628 L228.966,102.628 Z M258.618,97.196 L255.23,109.908 C255.043332,110.636004 254.567337,111 253.802,111 L250.554,111 C250.180665,111 249.854001,110.883335 249.574,110.65 C249.293999,110.416665 249.126,110.113335 249.07,109.74 L247.67,101.928 C247.651333,101.759999 247.609334,101.405336 247.544,100.864 C247.478666,100.322664 247.418,99.9026682 247.362,99.604 L247.026,99.604 L246.69,101.928 L245.318,109.74 C245.262,110.113335 245.094001,110.416665 244.814,110.65 C244.533999,110.883335 244.198002,111 243.806,111 L240.614,111 C239.848663,111 239.372668,110.636004 239.186,109.908 L235.798,97.196 L239.97,97.196 L241.846,106.156 C242.032668,107.164005 242.144666,107.919997 242.182,108.424 L242.546,108.424 C242.583334,108.162665 242.644,107.780003 242.728,107.276 C242.812,106.771997 242.872666,106.398668 242.91,106.156 L244.31,98.428 C244.440667,97.6066626 244.916663,97.196 245.738,97.196 L248.65,97.196 C249.023335,97.196 249.345332,97.3079989 249.616,97.532 C249.886668,97.7560011 250.05,98.063998 250.106,98.456 L251.478,106.156 C251.515334,106.417335 251.580666,106.799997 251.674,107.304 C251.767334,107.808003 251.832666,108.181332 251.87,108.424 L252.206,108.424 L252.542,106.156 L254.446,97.196 L258.618,97.196 Z M260.998,100.276 L260.606,97.476 C263.088679,97.0279978 265.487322,96.804 267.802,96.804 C269.668676,96.804 271.040662,97.1819962 271.918,97.938 C272.795338,98.6940038 273.234,100.005324 273.234,101.872 L273.234,111 L269.958,111 L269.538,108.9 C268.15666,110.524008 266.45801,111.336 264.442,111.336 C263.11666,111.336 262.034004,110.986003 261.194,110.286 C260.353996,109.585996 259.934,108.610673 259.934,107.36 L259.934,105.96 C259.934,104.858661 260.30733,104.000003 261.054,103.384 C261.80067,102.767997 262.83666,102.46 264.162,102.46 L269.09,102.46 L269.09,101.844 C269.071333,101.134663 268.908002,100.658668 268.6,100.416 C268.291998,100.173332 267.699338,100.052 266.822,100.052 C265.291326,100.052 263.350012,100.126666 260.998,100.276 Z M264.022,106.268 L264.022,106.8 C264.022,107.752005 264.563328,108.228 265.646,108.228 C266.766006,108.228 267.913994,107.780004 269.09,106.884 L269.09,104.952 L265.366,104.952 C264.469996,104.970667 264.022,105.409329 264.022,106.268 Z M286.422,96.804 L286.002,100.64 L284.882,100.64 C283.967329,100.64 282.55801,100.95733 280.654,101.592 L280.654,111 L276.51,111 L276.51,97.196 L279.73,97.196 L280.094,99.212 C281.979343,97.6066586 283.845991,96.804 285.694,96.804 L286.422,96.804 Z M301.514,91.4 L301.514,111 L298.238,111 L297.902,108.984 C296.57666,110.552008 294.822011,111.336 292.638,111.336 C290.920658,111.336 289.674671,110.71534 288.9,109.474 C288.125329,108.23266 287.738,106.398679 287.738,103.972 C287.738,101.32132 288.167329,99.4640053 289.026,98.4 C289.884671,97.3359947 291.219324,96.804 293.03,96.804 C294.803342,96.804 296.296661,97.2146626 297.51,98.036 C297.416666,97.0093282 297.37,96.0480045 297.37,95.152 L297.37,91.4 L301.514,91.4 Z M297.37,106.8 L297.37,100.416 C296.119327,100.061332 295.139337,99.884 294.43,99.884 C293.496662,99.884 292.857335,100.145331 292.512,100.668 C292.166665,101.190669 291.994,102.282658 291.994,103.944 C291.994,105.530675 292.161998,106.589997 292.498,107.122 C292.834002,107.654003 293.431329,107.92 294.29,107.92 C294.86867,107.92 295.363331,107.840667 295.774,107.682 C296.184669,107.523333 296.716663,107.229335 297.37,106.8 Z" id="alt.ctrl.GDC-Award" fill="#FFFFFF"></path>
        <path d="M168.244,158 L164.869,158 L164.869,139.37 L168.244,139.37 L168.244,158 Z M185.875,147.254 L185.875,158 L183.364,158 L183.067,156.164 C181.518992,157.622007 179.70101,158.351 177.613,158.351 C175.56099,158.351 174.076005,157.572508 173.158,156.0155 C172.239995,154.458492 171.781,151.988017 171.781,148.604 C171.781,144.931982 172.374994,142.416507 173.563,141.0575 C174.751006,139.698493 176.874985,139.019 179.935,139.019 C182.00501,139.019 183.786993,139.225998 185.281,139.64 L185.011,142.151 C183.264991,142.042999 181.627008,141.989 180.097,141.989 C179.124995,141.989 178.369003,142.056499 177.829,142.1915 C177.288997,142.326501 176.812002,142.632498 176.398,143.1095 C175.983998,143.586502 175.700501,144.270496 175.5475,145.1615 C175.394499,146.052504 175.318,147.262992 175.318,148.793 C175.318,151.295013 175.560998,153.027495 176.047,153.9905 C176.533002,154.953505 177.405994,155.435 178.666,155.435 C179.872006,155.435 181.176993,155.003004 182.581,154.139 L182.581,147.254 L185.875,147.254 Z M201.238,142.124 L194.488,142.124 C193.893997,142.124 193.480001,142.240999 193.246,142.475 C193.011999,142.709001 192.895,143.113997 192.895,143.69 L192.895,147.281 L200.239,147.281 L200.239,149.9 L192.895,149.9 L192.895,158 L189.493,158 L189.493,142.988 C189.493,141.835994 189.852996,140.936003 190.573,140.288 C191.293004,139.639997 192.264994,139.316 193.489,139.316 C197.197019,139.316 199.842992,139.396999 201.427,139.559 L201.238,142.124 Z" id="IGF" fill="#FFFFFF"></path>
        <path d="M154.8385,180.827 L154.6765,178.721 C156.69251,178.270998 158.618491,178.046 160.4545,178.046 C162.41651,178.046 163.869995,178.324997 164.815,178.883 C165.760005,179.441003 166.2325,180.520992 166.2325,182.123 C166.2325,183.275006 165.998502,184.336995 165.5305,185.309 C165.062498,186.281005 164.216506,187.441993 162.9925,188.792 L157.8085,194.489 C158.654504,194.417 159.644494,194.381 160.7785,194.381 L166.8805,194.381 L166.8805,197 L154.5415,197 L154.5415,195.299 C154.5415,194.812998 154.676499,194.435001 154.9465,194.165 L160.1305,188.306 C162.434512,185.821988 163.5595,183.815008 163.5055,182.285 C163.4875,181.510996 163.222003,181.007001 162.709,180.773 C162.195997,180.538999 161.363506,180.422 160.2115,180.422 C158.591492,180.422 156.80051,180.556999 154.8385,180.827 Z M171.3895,180.26 C172.379505,178.765993 174.071488,178.019 176.4655,178.019 C178.859512,178.019 180.546995,178.761493 181.528,180.2465 C182.509005,181.731507 182.9995,184.210983 182.9995,187.685 C182.9995,191.159017 182.509005,193.638493 181.528,195.1235 C180.546995,196.608507 178.859512,197.351 176.4655,197.351 C174.071488,197.351 172.384005,196.608507 171.403,195.1235 C170.421995,193.638493 169.9315,191.159017 169.9315,187.685 C169.9315,184.210983 170.417495,181.736007 171.3895,180.26 Z M176.4385,180.368 C174.998493,180.368 173.995003,180.912495 173.428,182.0015 C172.860997,183.090505 172.5775,184.984986 172.5775,187.685 C172.5775,190.385014 172.860997,192.279495 173.428,193.3685 C173.995003,194.457505 174.998493,195.002 176.4385,195.002 C177.932507,195.002 178.962997,194.462005 179.53,193.382 C180.097003,192.301995 180.3805,190.403014 180.3805,187.685 C180.3805,184.966986 180.097003,183.068005 179.53,181.988 C178.962997,180.907995 177.932507,180.368 176.4385,180.368 Z M192.5845,197 L189.8845,197 L189.8845,182.582 C189.8845,181.933997 189.9295,181.376002 190.0195,180.908 L185.5375,182.285 L185.2135,180.26 L189.8845,178.37 L192.5845,178.37 L192.5845,197 Z M200.3875,187.388 L200.3875,187.28 C198.623491,187.081999 197.7415,185.660013 197.7415,183.014 C197.7415,181.231991 198.159996,179.963004 198.997,179.207 C199.834004,178.450996 201.404488,178.073 203.7085,178.073 C206.030512,178.091 207.609996,178.473496 208.447,179.2205 C209.284004,179.967504 209.7025,181.231991 209.7025,183.014 C209.7025,185.660013 208.820509,187.081999 207.0565,187.28 L207.0565,187.388 C208.172506,187.496001 208.964498,187.968496 209.4325,188.8055 C209.900502,189.642504 210.1345,190.825992 210.1345,192.356 C210.1345,194.120009 209.689004,195.379996 208.798,196.136 C207.906996,196.892004 206.210513,197.279 203.7085,197.297 C201.260488,197.315 199.582005,196.937004 198.673,196.163 C197.763995,195.388996 197.3095,194.120009 197.3095,192.356 C197.3095,190.825992 197.538998,189.642504 197.998,188.8055 C198.457002,187.968496 199.253494,187.496001 200.3875,187.388 Z M206.5435,180.908 C206.093498,180.475998 205.157507,180.26 203.7355,180.26 C202.313493,180.26 201.368502,180.471498 200.9005,180.8945 C200.432498,181.317502 200.1985,182.113994 200.1985,183.284 C200.1985,184.472006 200.432498,185.263998 200.9005,185.66 C201.368502,186.056002 202.322493,186.254 203.7625,186.254 C205.202507,186.254 206.142998,186.060502 206.584,185.6735 C207.025002,185.286498 207.2455,184.490006 207.2455,183.284 C207.2455,182.113994 207.011502,181.322002 206.5435,180.908 Z M203.7625,188.414 C202.196492,188.432 201.152503,188.661498 200.6305,189.1025 C200.108497,189.543502 199.8475,190.429993 199.8475,191.762 C199.8475,193.004006 200.108497,193.849998 200.6305,194.3 C201.152503,194.750002 202.187492,194.975 203.7355,194.975 C205.265508,194.975 206.282497,194.750002 206.7865,194.3 C207.290503,193.849998 207.5425,193.004006 207.5425,191.762 C207.5425,190.411993 207.295002,189.516502 206.8,189.0755 C206.304998,188.634498 205.292508,188.414 203.7625,188.414 Z" id="2018" fill="#FFFFFF"></path>
    </g>
</svg>