<?xml version="1.0" encoding="UTF-8"?>
<svg width="360px" height="272px" viewBox="0 0 360 272" version="1.1" xmlns="http://www.w3.org/2000/svg" xmlns:xlink="http://www.w3.org/1999/xlink">
    <!-- Generator: Sketch 49.1 (51147) - http://www.bohemiancoding.com/sketch -->
    <title>award-altctrl-selection</title>
    <desc>Created with Sketch.</desc>
    <defs></defs>
    <g id="award-altctrl-selection" stroke="none" stroke-width="1" fill="none" fill-rule="evenodd">
        <g id="Group" fill="#FFFFFF" fill-rule="nonzero">
            <path d="M82.04,208.28 C90.7041155,213.372125 99.6371468,217.992198 108.8,222.12 C133.6,233.44 158.68,241.8 177.36,252 C178.52,252.6 179.64,253.24 180.72,253.88 C173.23204,258.125925 166.588319,263.712074 161.12,270.36 L162.44,271.28 C167.957345,264.607651 174.655579,259.00771 182.2,254.76 C189.422254,258.872603 195.812012,264.299149 201.04,270.76 L202.4,269.84 C197.206084,263.40735 190.874261,257.983948 183.72,253.84 C198.084768,246.218354 212.929338,239.537629 228.16,233.84 C236.44,230.44 245.2,226.76 254.08,222.68 C342.92,181.48 362.28,113.68 330.4,39.76 L329.64,40.12 C360.52,112.52 343,180.12 253.64,221.36 C244.76,225.36 236.04,229.04 227.72,232.44 C212.187366,238.312694 197.049331,245.180258 182.4,253 C181.08,252.2 179.72,251.44 178.4,250.68 C159.56,240.44 134.4,232.16 109.64,220.88 C100.510166,216.808967 91.6161632,212.228422 83,207.16 C19.04,169.32 4.36,106.36 32.48,40 L31.64,39.76 C3.32,106.44 17.84,169.96 82.04,208.28 Z" id="Shape"></path>
            <path d="M155.24,237.76 C156.92,231.12 156.48,223.44 142.6,212.24 C139.200091,209.562764 135.661882,207.06599 132,204.76 C133,227.76 145.68,230.6 155.24,237.76 Z" id="Shape"></path>
            <path d="M122.28,222.52 C125.88,225.08 129.32,227 130.76,227.92 C133.32,214.36 120.44,203.92 108.96,195.92 C108.610399,202.071713 109.996409,208.197878 112.96,213.6 C115.459021,217.149417 118.624441,220.178983 122.28,222.52 Z" id="Shape"></path>
            <path d="M106.64,217.64 C108.92,205.64 99.56,195.4 88.04,185.2 C85,202.44 95.28,210.4 106.64,217.64 Z" id="Shape"></path>
            <path d="M83.52,205.64 C85.92,195.84 80.36,185.28 69.84,172.52 C64.6,186.32 71.28,196.76 83.52,205.64 Z" id="Shape"></path>
            <path d="M62.32,190.96 C66.04,180.68 60.36,166.96 55.08,157.16 C48.88,166.36 49.36,178.12 62.32,190.96 Z" id="Shape"></path>
            <path d="M44.28,138.88 C34.28,148.4 36.68,161.4 44.28,172.84 C49.64,163.36 47.16,149.24 44.28,138.88 Z" id="Shape"></path>
            <path d="M37.6,118 C30.52,122.56 24.48,133.28 31.12,151.28 C37.92,142.88 38.76,128 37.6,118 Z" id="Shape"></path>
            <path d="M34.04,104.8 C34.6480971,101.897423 35.0623458,98.9575937 35.28,96 C27.28,99.36 20.16,108.72 23.28,127.52 C29.06631,121.198671 32.8156554,113.281837 34.04,104.8 Z" id="Shape"></path>
            <path d="M37.16,73 C29.44,75 20.76,83.12 20.36,102.28 C30.8,94.44 36,80 37.16,73 Z" id="Shape"></path>
            <path d="M42.8,50.2 C30.2,51.8 24.92,65.2 22.36,77.04 C32.0885676,70.7439553 39.316933,61.2523052 42.8,50.2 Z" id="Shape"></path>
            <path d="M28.6,52.36 C38.9331779,47.2264673 47.1111389,38.5949626 51.68,28 C37.04,28 30.76,46.64 28.6,52.36 Z" id="Shape"></path>
            <path d="M53.76,0.72 C38.16,13.24 33,27 33.76,36.28 C42.48,31.12 50.64,10.24 53.76,0.72 Z" id="Shape"></path>
            <path d="M151.44,242.96 C149.16,242.6 135.72,238.6 127.44,240.56 C121.144664,242.214497 115.2608,245.15643 110.16,249.2 C114.649887,250.419995 119.22167,251.315637 123.84,251.88 C141.6,253.84 147.68,248.4 151.44,242.96 Z" id="Shape"></path>
            <path d="M100.56,228.24 C94.1021325,229.394106 87.8996882,231.682781 82.24,235 C86.7151785,236.6906 91.3159191,238.028024 96,239 C101.926505,240.200277 108.033495,240.200277 113.96,239 C118.247681,237.960898 121.996694,235.366523 124.48,231.72 C123.24,231.52 119.36,230.36 114.76,229.4 C110.11907,228.256979 105.324909,227.865343 100.56,228.24 Z" id="Shape"></path>
            <path d="M55.04,217.08 C59.2644213,219.511254 63.7112511,221.533758 68.32,223.12 C85.32,228.84 93,224.52 97.72,219.48 C95.24,218.88 82.48,213.52 74.52,213.52 C67.8864291,213.737585 61.3217512,214.93729 55.04,217.08 Z" id="Shape"></path>
            <path d="M30.72,193.8 C34.2970947,197.188685 38.2415558,200.167156 42.48,202.68 C57.52,211.48 66.48,209 72.28,204.64 C61.36,200 57.56,192.72 30.72,193.8 Z" id="Shape"></path>
            <path d="M49.64,185.84 C37.84,177.44 38.52,171.56 12.4,165.12 C20.6,178.32 34.76,192 49.64,185.84 Z" id="Shape"></path>
            <path d="M2.4,133.52 C3.69048944,137.914443 5.4611698,142.153345 7.68,146.16 C15.68,160.6 24.4,163.28 32.04,162.48 C23.24,152 26.04,146.44 2.4,133.52 Z" id="Shape"></path>
            <path d="M21.16,135.68 C15.72,124 19.48,119.12 0,101.2 C1.12,116 5.96,132.92 21.16,135.68 Z" id="Shape"></path>
            <path d="M16.92,107.24 C14.64,94.4 18.72,90.2 4.44,69.76 C2.44,84.24 3.36,100.84 16.92,107.24 Z" id="Shape"></path>
            <path d="M18.92,78.64 C19.48,66.64 24.16,62.36 14.36,40.2 C9.84,53.72 7.64,69.52 18.92,78.64 Z" id="Shape"></path>
            <path d="M28.52,12.84 C22,25.28 17.36,39.88 26.28,50.92 C28.92,38.96 34.28,36.76 28.52,12.84 Z" id="Shape"></path>
            <path d="M220,241.36 C215.32,242.16 211.36,243.28 210.12,243.48 C212.453897,247.23791 216.081869,250.012242 220.32,251.28 C226.033464,252.777593 231.98235,253.157887 237.84,252.4 C242.443189,251.842473 247.001214,250.960275 251.48,249.76 C246.382339,245.693777 240.499289,242.725016 234.2,241.04 C229.485945,240.291746 224.675562,240.400149 220,241.36 Z" id="Shape"></path>
            <path d="M244.24,230.96 C239.8,231.8 235.96,232.92 234.28,233.28 C236.908973,236.932579 240.775517,239.505537 245.16,240.52 C255.568518,242.186742 266.234768,240.969323 276,237 C266.779313,230.50176 255.202349,228.300096 244.24,230.96 Z" id="Shape"></path>
            <path d="M274.72,217.92 C269.216274,219.097436 263.792197,220.620452 258.48,222.48 C268.4,233.28 287.12,228.36 300.4,221.56 C292.364439,217.91513 283.451957,216.651835 274.72,217.92 Z" id="Shape"></path>
            <path d="M323,202.2 C304.56,197.88 289.72,206.2 281.88,209.92 C293.12,218.84 311.56,211.24 323,202.2 Z" id="Shape"></path>
            <path d="M341.56,178.36 C324.12,178.36 310.24,189.72 303.44,194.36 C316.2,200.72 332.68,189.72 341.56,178.36 Z" id="Shape"></path>
            <path d="M321.72,175.36 C335.36,177.88 348.84,163.76 354,151.16 C338.36,154.56 327,169.52 321.72,175.36 Z" id="Shape"></path>
            <path d="M335.12,152.8 C349.84,151.2 358.4,132.8 359.92,122.8 C346.16,128.8 338.84,145.56 335.12,152.8 Z" id="Shape"></path>
            <path d="M342.88,128 C354.88,123.16 360.6,106.88 359.96,94.28 C348,102.2 344.68,121.24 342.88,128 Z" id="Shape"></path>
            <path d="M354.8,66.84 C344.56,76.32 345.68,96.2 345.36,102.28 C356,94.48 357.72,78.28 354.8,66.84 Z" id="Shape"></path>
            <path d="M345.44,40.96 C337.44,51.04 341.44,68.6 342.8,76.6 C351.24,66.2 350,50.76 345.44,40.96 Z" id="Shape"></path>
            <path d="M332.76,16.88 C326.16,27.68 333.6,44.08 336,51.76 C341.086549,40.3655208 339.858276,27.1426319 332.76,16.88 Z" id="Shape"></path>
            <path d="M328.6,36.44 C330.16,29.68 323,11.24 307.72,1.6 C310,6.8 316.48,26.8 328.6,36.44 Z" id="Shape"></path>
            <path d="M232,204.28 C218.88,212.8 205.08,222.76 208.64,237.24 C218.24,230 230.92,227.24 232,204.28 Z" id="Shape"></path>
            <path d="M244,220.96 C252,215.24 257.6,208.96 257.2,193.68 C244,203.72 233.2,212.8 235.8,226.28 C236.76,225.56 240.24,223.64 244,220.96 Z" id="Shape"></path>
            <path d="M269.88,208.84 C277.2,202.8 282.12,195.88 279.64,181.24 C268.4,192.6 259.28,201.56 262.28,214.52 C263.2,213.76 266.48,211.68 269.88,208.84 Z" id="Shape"></path>
            <path d="M298.36,165.96 C288.76,180.84 283.48,189.04 287.28,200.36 C293.52,193.84 306.28,186.2 298.36,165.96 Z" id="Shape"></path>
            <path d="M311.32,180 C312.418721,178.497157 313.433599,176.934778 314.36,175.32 C319.2,166.96 320.2,158.84 312.4,147.6 C306.2,165.32 304.4,173.12 309.32,182.68 C309.64,182 310.36,181.08 311.32,180 Z" id="Shape"></path>
            <path d="M324.36,157.48 C325.008885,158.455707 325.716875,159.390789 326.48,160.28 C326.92,158.96 332.36,148.28 330.48,139.96 C328.902811,134.348131 325.784997,129.290344 321.48,125.36 C320.48,134.52 318.08,148 324.36,157.48 Z" id="Shape"></path>
            <path d="M337.28,134.6 C337.28,134.04 337.52,132.92 337.76,131.48 C337.76,130.72 338,129.88 338.12,129 L338.12,127.6 L338.12,126.12 C338.459467,122.038017 337.857337,117.932585 336.36,114.12 C333.66677,108.944246 329.685479,104.549672 324.8,101.36 C326.56,117.08 328,127.04 337.28,134.6 Z" id="Shape"></path>
            <path d="M323.48,76.4 C324.48,80.04 327.88,94 334.28,101.32 C334.882331,102.022419 335.537581,102.677669 336.24,103.28 C337.907767,104.818416 339.746444,106.160516 341.72,107.28 C340.72,98.72 342.92,86.2 323.48,76.4 Z" id="Shape"></path>
            <path d="M317.2,51.4 C323.08,64.4 328,74.68 340,79.2 C337.52,70.96 337.64,59.08 317.2,51.4 Z" id="Shape"></path>
            <path d="M333.24,52 C329.24,43.68 327.48,32.76 306.92,27.2 C314.72,40 320.96,48.92 333.24,52 Z" id="Shape"></path>
        </g>
        <path d="M111.904,45.464 C113.464008,43.6159908 116.23598,42.692 120.22,42.692 C124.20402,42.692 126.975992,43.6099908 128.536,45.446 C130.096008,47.2820092 130.876,50.6599754 130.876,55.58 C130.876,60.5000246 130.096008,63.8779908 128.536,65.714 C126.975992,67.5500092 124.20402,68.468 120.22,68.468 C116.23598,68.468 113.470008,67.5500092 111.922,65.714 C110.373992,63.8779908 109.6,60.5000246 109.6,55.58 C109.6,50.6599754 110.367992,47.2880091 111.904,45.464 Z M124.036,48.884 C123.363997,47.7079941 122.092009,47.12 120.22,47.12 C118.347991,47.12 117.070003,47.7079941 116.386,48.884 C115.701997,50.0600059 115.36,52.2919836 115.36,55.58 C115.36,58.8680164 115.701997,61.0999941 116.386,62.276 C117.070003,63.4520059 118.347991,64.04 120.22,64.04 C122.092009,64.04 123.369997,63.4520059 124.054,62.276 C124.738003,61.0999941 125.08,58.8680164 125.08,55.58 C125.08,52.2919836 124.732003,50.0600059 124.036,48.884 Z M151.324,47.48 L142.432,47.48 C141.735997,47.48 141.238001,47.6239986 140.938,47.912 C140.637998,48.2000014 140.488,48.6679968 140.488,49.316 L140.488,53.564 L149.992,53.564 L149.992,57.56 L140.488,57.56 L140.488,68 L134.98,68 L134.98,48.2 C134.98,46.6159921 135.477995,45.3620046 136.474,44.438 C137.470005,43.5139954 138.795992,43.052 140.452,43.052 C145.732026,43.052 149.451989,43.1839987 151.612,43.448 L151.324,47.48 Z M171.268,47.48 L162.376,47.48 C161.679997,47.48 161.182001,47.6239986 160.882,47.912 C160.581998,48.2000014 160.432,48.6679968 160.432,49.316 L160.432,53.564 L169.936,53.564 L169.936,57.56 L160.432,57.56 L160.432,68 L154.924,68 L154.924,48.2 C154.924,46.6159921 155.421995,45.3620046 156.418,44.438 C157.414005,43.5139954 158.739992,43.052 160.396,43.052 C165.676026,43.052 169.395989,43.1839987 171.556,43.448 L171.268,47.48 Z M180.412,68 L174.94,68 L174.94,43.16 L180.412,43.16 L180.412,68 Z M202.552,63.356 L203.02,67.424 C200.859989,68.0960034 198.208016,68.432 195.064,68.432 C191.223981,68.432 188.524008,67.4720096 186.964,65.552 C185.403992,63.6319904 184.624,60.3080236 184.624,55.58 C184.624,50.8519764 185.403992,47.5280096 186.964,45.608 C188.524008,43.6879904 191.223981,42.728 195.064,42.728 C197.848014,42.728 200.331989,43.0039972 202.516,43.556 L202.048,47.66 C200.10399,47.5399994 197.776014,47.48 195.064,47.48 C193.263991,47.48 192.034003,48.0499943 191.374,49.19 C190.713997,50.3300057 190.384,52.4599844 190.384,55.58 C190.384,58.7000156 190.713997,60.8299943 191.374,61.97 C192.034003,63.1100057 193.263991,63.68 195.064,63.68 C198.400017,63.68 200.895992,63.5720011 202.552,63.356 Z M212.02,68 L206.548,68 L206.548,43.16 L212.02,43.16 L212.02,68 Z M230.524,61.484 L221.992,61.484 L220.192,68 L214.576,68 L221.74,44.6 C221.836,44.1679978 222.063998,43.8200013 222.424,43.556 C222.784002,43.2919987 223.191998,43.16 223.648,43.16 L228.832,43.16 C229.864005,43.16 230.499999,43.6399952 230.74,44.6 L237.904,68 L232.324,68 L230.524,61.484 Z M229.336,57.236 L227.248,49.64 C226.959999,48.439994 226.792,47.6600018 226.744,47.3 L225.772,47.3 C225.724,47.5400012 225.640001,47.9239974 225.52,48.452 C225.399999,48.9800026 225.304,49.3759987 225.232,49.64 L223.144,57.236 L229.336,57.236 Z M245.86,43.16 L245.86,61.7 C245.86,62.3480032 246.009998,62.8159986 246.31,63.104 C246.610002,63.3920014 247.107997,63.536 247.804,63.536 L256.336,63.536 L256.588,67.712 C254.163988,67.9760013 250.660023,68.108 246.076,68.108 C244.15599,68.108 242.728005,67.6280048 241.792,66.668 C240.855995,65.7079952 240.388,64.424008 240.388,62.816 L240.388,43.16 L245.86,43.16 Z M101.608,101.604 L96.604,99.84 C94.7559908,99.1679966 93.436004,98.2560058 92.644,97.104 C91.851996,95.9519942 91.456,94.4400094 91.456,92.568 C91.456,89.8319863 92.1219933,88.0020046 93.454,87.078 C94.7860067,86.1539954 97.1319832,85.692 100.492,85.692 C103.660016,85.692 106.383989,86.0159968 108.664,86.664 L108.304,90.408 C106.21599,90.3359996 103.624015,90.3 100.528,90.3 C99.0879928,90.3 98.1280024,90.4259987 97.648,90.678 C97.1679976,90.9300013 96.928,91.559995 96.928,92.568 C96.928,93.3840041 97.1079982,93.9719982 97.468,94.332 C97.8280018,94.6920018 98.511995,95.0399983 99.52,95.376 L104.236,96.996 C106.15601,97.6680034 107.511996,98.5859942 108.304,99.75 C109.096004,100.914006 109.492,102.431991 109.492,104.304 C109.492,107.088014 108.820007,108.977995 107.476,109.974 C106.131993,110.970005 103.732017,111.468 100.276,111.468 C97.467986,111.468 94.6240144,111.156003 91.744,110.532 L92.068,106.572 C97.1800256,106.692001 99.9159982,106.752 100.276,106.752 C101.740007,106.752 102.717998,106.596002 103.21,106.284 C103.702002,105.971998 103.948,105.324005 103.948,104.34 C103.948,103.499996 103.780002,102.906002 103.444,102.558 C103.107998,102.209998 102.496004,101.892001 101.608,101.604 Z M129.904,106.716 L130.156,110.748 C127.899989,110.988001 124.060027,111.108 118.636,111.108 C116.979992,111.108 115.660005,110.658005 114.676,109.758 C113.691995,108.857996 113.188,107.640008 113.164,106.104 L113.164,91.056 C113.188,89.5199923 113.691995,88.3020045 114.676,87.402 C115.660005,86.5019955 116.979992,86.052 118.636,86.052 C124.060027,86.052 127.899989,86.1719988 130.156,86.412 L129.904,90.48 L120.364,90.48 C119.763997,90.48 119.332001,90.6239986 119.068,90.912 C118.803999,91.2000014 118.672,91.6679968 118.672,92.316 L118.672,96.096 L128.572,96.096 L128.572,100.056 L118.672,100.056 L118.672,104.844 C118.672,105.516003 118.803999,105.995999 119.068,106.284 C119.332001,106.572001 119.763997,106.716 120.364,106.716 L129.904,106.716 Z M139.516,86.16 L139.516,104.7 C139.516,105.348003 139.665999,105.815999 139.966,106.104 C140.266001,106.392001 140.763997,106.536 141.46,106.536 L149.992,106.536 L150.244,110.712 C147.819988,110.976001 144.316023,111.108 139.732,111.108 C137.81199,111.108 136.384005,110.628005 135.448,109.668 C134.511995,108.707995 134.044,107.424008 134.044,105.816 L134.044,86.16 L139.516,86.16 Z M169.792,106.716 L170.044,110.748 C167.787989,110.988001 163.948027,111.108 158.524,111.108 C156.867992,111.108 155.548005,110.658005 154.564,109.758 C153.579995,108.857996 153.076,107.640008 153.052,106.104 L153.052,91.056 C153.076,89.5199923 153.579995,88.3020045 154.564,87.402 C155.548005,86.5019955 156.867992,86.052 158.524,86.052 C163.948027,86.052 167.787989,86.1719988 170.044,86.412 L169.792,90.48 L160.252,90.48 C159.651997,90.48 159.220001,90.6239986 158.956,90.912 C158.691999,91.2000014 158.56,91.6679968 158.56,92.316 L158.56,96.096 L168.46,96.096 L168.46,100.056 L158.56,100.056 L158.56,104.844 C158.56,105.516003 158.691999,105.995999 158.956,106.284 C159.220001,106.572001 159.651997,106.716 160.252,106.716 L169.792,106.716 Z M190.852,106.356 L191.32,110.424 C189.159989,111.096003 186.508016,111.432 183.364,111.432 C179.523981,111.432 176.824008,110.47201 175.264,108.552 C173.703992,106.63199 172.924,103.308024 172.924,98.58 C172.924,93.8519764 173.703992,90.5280096 175.264,88.608 C176.824008,86.6879904 179.523981,85.728 183.364,85.728 C186.148014,85.728 188.631989,86.0039972 190.816,86.556 L190.348,90.66 C188.40399,90.5399994 186.076014,90.48 183.364,90.48 C181.563991,90.48 180.334003,91.0499943 179.674,92.19 C179.013997,93.3300057 178.684,95.4599844 178.684,98.58 C178.684,101.700016 179.013997,103.829994 179.674,104.97 C180.334003,106.110006 181.563991,106.68 183.364,106.68 C186.700017,106.68 189.195992,106.572001 190.852,106.356 Z M213.316,90.624 L205.9,90.624 L205.9,111 L200.392,111 L200.392,90.624 L192.976,90.624 L192.976,86.16 L213.316,86.16 L213.316,90.624 Z M221.956,111 L216.484,111 L216.484,86.16 L221.956,86.16 L221.956,111 Z M228.472,88.464 C230.032008,86.6159908 232.80398,85.692 236.788,85.692 C240.77202,85.692 243.543992,86.6099908 245.104,88.446 C246.664008,90.2820092 247.444,93.6599754 247.444,98.58 C247.444,103.500025 246.664008,106.877991 245.104,108.714 C243.543992,110.550009 240.77202,111.468 236.788,111.468 C232.80398,111.468 230.038008,110.550009 228.49,108.714 C226.941992,106.877991 226.168,103.500025 226.168,98.58 C226.168,93.6599754 226.935992,90.2880091 228.472,88.464 Z M240.604,91.884 C239.931997,90.7079941 238.660009,90.12 236.788,90.12 C234.915991,90.12 233.638003,90.7079941 232.954,91.884 C232.269997,93.0600059 231.928,95.2919836 231.928,98.58 C231.928,101.868016 232.269997,104.099994 232.954,105.276 C233.638003,106.452006 234.915991,107.04 236.788,107.04 C238.660009,107.04 239.937997,106.452006 240.622,105.276 C241.306003,104.099994 241.648,101.868016 241.648,98.58 C241.648,95.2919836 241.300003,93.0600059 240.604,91.884 Z M272.572,86.16 L272.572,109.02 C272.572,110.340007 271.924006,111 270.628,111 L267.208,111 C266.655997,111 266.224002,110.874001 265.912,110.622 C265.599998,110.369999 265.300001,109.956003 265.012,109.38 L258.496,96.132 C257.679996,94.3799912 257.176001,93.0960041 256.984,92.28 L256.588,92.28 C256.756001,93.480006 256.84,94.7999928 256.84,96.24 L256.84,111 L251.62,111 L251.62,88.14 C251.62,86.8199934 252.279993,86.16 253.6,86.16 L256.948,86.16 C257.500003,86.16 257.931998,86.2859987 258.244,86.538 C258.556002,86.7900013 258.855999,87.2039971 259.144,87.78 L265.444,100.632 C266.044003,101.832006 266.643997,103.163993 267.244,104.628 L267.604,104.628 C267.459999,102.755991 267.388,101.364005 267.388,100.452 L267.388,86.16 L272.572,86.16 Z" id="OFFICIAL-SELECTION" fill="#FFFFFF"></path>
        <path d="M114.704,147.362 L114.38,145.04 C116.702012,144.607998 118.90699,144.392 120.995,144.392 C122.705009,144.392 123.960496,144.733997 124.7615,145.418 C125.562504,146.102003 125.963,147.298991 125.963,149.009 L125.963,158 L123.371,158 L123.02,155.975 C121.633993,157.523008 119.95101,158.297 117.971,158.297 C116.728994,158.297 115.721004,157.959503 114.947,157.2845 C114.172996,156.609497 113.786,155.669006 113.786,154.463 L113.786,153.113 C113.786,152.050995 114.127997,151.232003 114.812,150.656 C115.496003,150.079997 116.458994,149.792 117.701,149.792 L122.669,149.792 L122.669,148.982 C122.651,148.225996 122.480002,147.722001 122.156,147.47 C121.831998,147.217999 121.193005,147.092 120.239,147.092 C118.852993,147.092 117.008012,147.181999 114.704,147.362 Z M117.053,153.518 L117.053,154.031 C117.053,155.111005 117.628994,155.651 118.781,155.651 C120.095007,155.651 121.390994,155.129005 122.669,154.085 L122.669,152.033 L118.457,152.033 C117.934997,152.051 117.570501,152.185999 117.3635,152.438 C117.156499,152.690001 117.053,153.049998 117.053,153.518 Z M132.848,139.1 L132.848,153.869 C132.83,154.391003 132.951499,154.777999 133.2125,155.03 C133.473501,155.282001 133.873997,155.408 134.414,155.408 L135.548,155.408 L135.926,157.838 C135.313997,158.144002 134.378006,158.297 133.118,158.297 C132.019995,158.297 131.151503,157.982003 130.5125,157.352 C129.873497,156.721997 129.554,155.831006 129.554,154.679 L129.554,139.1 L132.848,139.1 Z M142.109,147.146 L142.109,153.869 C142.109,154.445003 142.225999,154.845499 142.46,155.0705 C142.694001,155.295501 143.107997,155.408 143.702,155.408 L145.511,155.408 L145.862,157.838 C144.907995,158.144002 143.774007,158.297 142.46,158.297 C141.307994,158.297 140.421503,157.964003 139.8005,157.298 C139.179497,156.631997 138.869,155.678006 138.869,154.436 L138.869,147.146 L136.466,147.146 L136.466,144.905 L138.842,144.77 L138.842,140.963 L142.109,140.963 L142.109,144.77 L145.997,144.77 L145.997,147.146 L142.109,147.146 Z M149.426,154.301 L150.398,154.301 C150.848002,154.301 151.158499,154.386499 151.3295,154.5575 C151.500501,154.728501 151.586,155.029998 151.586,155.462 L151.586,156.839 C151.586,157.271002 151.500501,157.572499 151.3295,157.7435 C151.158499,157.914501 150.848002,158 150.398,158 L149.426,158 C148.975998,158 148.665501,157.914501 148.4945,157.7435 C148.323499,157.572499 148.238,157.271002 148.238,156.839 L148.238,155.462 C148.238,155.029998 148.323499,154.728501 148.4945,154.5575 C148.665501,154.386499 148.975998,154.301 149.426,154.301 Z M165.41,155.354 L165.707,157.514 C164.392993,158.054003 162.77301,158.324 160.847,158.324 C158.488988,158.324 156.824005,157.802005 155.852,156.758 C154.879995,155.713995 154.394,153.914013 154.394,151.358 C154.394,148.801987 154.884495,147.002005 155.8655,145.958 C156.846505,144.913995 158.515988,144.392 160.874,144.392 C162.728009,144.392 164.266994,144.643997 165.491,145.148 L165.113,147.2 C164.230996,147.164 163.007008,147.146 161.441,147.146 C160.072993,147.146 159.128003,147.442997 158.606,148.037 C158.083997,148.631003 157.823,149.737992 157.823,151.358 C157.823,152.996008 158.083997,154.116497 158.606,154.7195 C159.128003,155.322503 160.072993,155.624 161.441,155.624 C162.881007,155.624 164.203994,155.534001 165.41,155.354 Z M172.835,147.146 L172.835,153.869 C172.835,154.445003 172.951999,154.845499 173.186,155.0705 C173.420001,155.295501 173.833997,155.408 174.428,155.408 L176.237,155.408 L176.588,157.838 C175.633995,158.144002 174.500007,158.297 173.186,158.297 C172.033994,158.297 171.147503,157.964003 170.5265,157.298 C169.905497,156.631997 169.595,155.678006 169.595,154.436 L169.595,147.146 L167.192,147.146 L167.192,144.905 L169.568,144.77 L169.568,140.963 L172.835,140.963 L172.835,144.77 L176.723,144.77 L176.723,147.146 L172.835,147.146 Z M188.198,144.392 L187.847,147.47 L186.902,147.47 C185.965995,147.47 184.50801,147.865996 182.528,148.658 L182.528,158 L179.234,158 L179.234,144.77 L181.799,144.77 L182.096,146.714 C183.986009,145.165992 185.803991,144.392 187.55,144.392 L188.198,144.392 Z M193.706,139.1 L193.706,153.869 C193.688,154.391003 193.809499,154.777999 194.0705,155.03 C194.331501,155.282001 194.731997,155.408 195.272,155.408 L196.406,155.408 L196.784,157.838 C196.171997,158.144002 195.236006,158.297 193.976,158.297 C192.877995,158.297 192.009503,157.982003 191.3705,157.352 C190.731497,156.721997 190.412,155.831006 190.412,154.679 L190.412,139.1 L193.706,139.1 Z M199.781,154.301 L200.753,154.301 C201.203002,154.301 201.513499,154.386499 201.6845,154.5575 C201.855501,154.728501 201.941,155.029998 201.941,155.462 L201.941,156.839 C201.941,157.271002 201.855501,157.572499 201.6845,157.7435 C201.513499,157.914501 201.203002,158 200.753,158 L199.781,158 C199.330998,158 199.020501,157.914501 198.8495,157.7435 C198.678499,157.572499 198.593,157.271002 198.593,156.839 L198.593,155.462 C198.593,155.029998 198.678499,154.728501 198.8495,154.5575 C199.020501,154.386499 199.330998,154.301 199.781,154.301 Z M219.059,147.254 L219.059,158 L216.548,158 L216.251,156.164 C214.702992,157.622007 212.88501,158.351 210.797,158.351 C208.74499,158.351 207.260005,157.572508 206.342,156.0155 C205.423995,154.458492 204.965,151.988017 204.965,148.604 C204.965,144.931982 205.558994,142.416507 206.747,141.0575 C207.935006,139.698493 210.058985,139.019 213.119,139.019 C215.18901,139.019 216.970993,139.225998 218.465,139.64 L218.195,142.151 C216.448991,142.042999 214.811008,141.989 213.281,141.989 C212.308995,141.989 211.553003,142.056499 211.013,142.1915 C210.472997,142.326501 209.996002,142.632498 209.582,143.1095 C209.167998,143.586502 208.884501,144.270496 208.7315,145.1615 C208.578499,146.052504 208.502,147.262992 208.502,148.793 C208.502,151.295013 208.744998,153.027495 209.231,153.9905 C209.717002,154.953505 210.589994,155.435 211.85,155.435 C213.056006,155.435 214.360993,155.003004 215.765,154.139 L215.765,147.254 L219.059,147.254 Z M222.731,158 L222.731,139.37 C225.197012,139.207999 227.518989,139.127 229.697,139.127 C232.523014,139.127 234.498494,139.819993 235.6235,141.206 C236.748506,142.592007 237.311,145.084982 237.311,148.685 C237.311,152.285018 236.748506,154.777993 235.6235,156.164 C234.498494,157.550007 232.523014,158.243 229.697,158.243 C227.518989,158.243 225.197012,158.162001 222.731,158 Z M226.106,141.962 L226.106,155.354 C227.510007,155.39 228.706995,155.408 229.697,155.408 C231.245008,155.408 232.306997,154.926505 232.883,153.9635 C233.459003,153.000495 233.747,151.241013 233.747,148.685 C233.747,146.128987 233.454503,144.365005 232.8695,143.393 C232.284497,142.420995 231.227008,141.935 229.697,141.935 C229.210998,141.935 228.576504,141.9395 227.7935,141.9485 C227.010496,141.9575 226.448002,141.962 226.106,141.962 Z M253.214,155.084 L253.511,157.622 C252.016993,158.090002 250.109012,158.324 247.787,158.324 C244.996986,158.324 243.035006,157.604007 241.901,156.164 C240.766994,154.723993 240.2,152.231018 240.2,148.685 C240.2,145.138982 240.766994,142.646007 241.901,141.206 C243.035006,139.765993 244.996986,139.046 247.787,139.046 C249.85701,139.046 251.638993,139.243998 253.133,139.64 L252.809,142.205 C251.242992,142.078999 249.569009,142.016 247.787,142.016 C246.238992,142.016 245.181503,142.488495 244.6145,143.4335 C244.047497,144.378505 243.764,146.128987 243.764,148.685 C243.764,151.241013 244.047497,152.991495 244.6145,153.9365 C245.181503,154.881505 246.238992,155.354 247.787,155.354 C250.073011,155.354 251.881993,155.264001 253.214,155.084 Z" id="alt.ctrl.GDC" fill="#FFFFFF"></path>
        <path d="M154.8385,180.827 L154.6765,178.721 C156.69251,178.270998 158.618491,178.046 160.4545,178.046 C162.41651,178.046 163.869995,178.324997 164.815,178.883 C165.760005,179.441003 166.2325,180.520992 166.2325,182.123 C166.2325,183.275006 165.998502,184.336995 165.5305,185.309 C165.062498,186.281005 164.216506,187.441993 162.9925,188.792 L157.8085,194.489 C158.654504,194.417 159.644494,194.381 160.7785,194.381 L166.8805,194.381 L166.8805,197 L154.5415,197 L154.5415,195.299 C154.5415,194.812998 154.676499,194.435001 154.9465,194.165 L160.1305,188.306 C162.434512,185.821988 163.5595,183.815008 163.5055,182.285 C163.4875,181.510996 163.222003,181.007001 162.709,180.773 C162.195997,180.538999 161.363506,180.422 160.2115,180.422 C158.591492,180.422 156.80051,180.556999 154.8385,180.827 Z M171.3895,180.26 C172.379505,178.765993 174.071488,178.019 176.4655,178.019 C178.859512,178.019 180.546995,178.761493 181.528,180.2465 C182.509005,181.731507 182.9995,184.210983 182.9995,187.685 C182.9995,191.159017 182.509005,193.638493 181.528,195.1235 C180.546995,196.608507 178.859512,197.351 176.4655,197.351 C174.071488,197.351 172.384005,196.608507 171.403,195.1235 C170.421995,193.638493 169.9315,191.159017 169.9315,187.685 C169.9315,184.210983 170.417495,181.736007 171.3895,180.26 Z M176.4385,180.368 C174.998493,180.368 173.995003,180.912495 173.428,182.0015 C172.860997,183.090505 172.5775,184.984986 172.5775,187.685 C172.5775,190.385014 172.860997,192.279495 173.428,193.3685 C173.995003,194.457505 174.998493,195.002 176.4385,195.002 C177.932507,195.002 178.962997,194.462005 179.53,193.382 C180.097003,192.301995 180.3805,190.403014 180.3805,187.685 C180.3805,184.966986 180.097003,183.068005 179.53,181.988 C178.962997,180.907995 177.932507,180.368 176.4385,180.368 Z M192.5845,197 L189.8845,197 L189.8845,182.582 C189.8845,181.933997 189.9295,181.376002 190.0195,180.908 L185.5375,182.285 L185.2135,180.26 L189.8845,178.37 L192.5845,178.37 L192.5845,197 Z M200.3875,187.388 L200.3875,187.28 C198.623491,187.081999 197.7415,185.660013 197.7415,183.014 C197.7415,181.231991 198.159996,179.963004 198.997,179.207 C199.834004,178.450996 201.404488,178.073 203.7085,178.073 C206.030512,178.091 207.609996,178.473496 208.447,179.2205 C209.284004,179.967504 209.7025,181.231991 209.7025,183.014 C209.7025,185.660013 208.820509,187.081999 207.0565,187.28 L207.0565,187.388 C208.172506,187.496001 208.964498,187.968496 209.4325,188.8055 C209.900502,189.642504 210.1345,190.825992 210.1345,192.356 C210.1345,194.120009 209.689004,195.379996 208.798,196.136 C207.906996,196.892004 206.210513,197.279 203.7085,197.297 C201.260488,197.315 199.582005,196.937004 198.673,196.163 C197.763995,195.388996 197.3095,194.120009 197.3095,192.356 C197.3095,190.825992 197.538998,189.642504 197.998,188.8055 C198.457002,187.968496 199.253494,187.496001 200.3875,187.388 Z M206.5435,180.908 C206.093498,180.475998 205.157507,180.26 203.7355,180.26 C202.313493,180.26 201.368502,180.471498 200.9005,180.8945 C200.432498,181.317502 200.1985,182.113994 200.1985,183.284 C200.1985,184.472006 200.432498,185.263998 200.9005,185.66 C201.368502,186.056002 202.322493,186.254 203.7625,186.254 C205.202507,186.254 206.142998,186.060502 206.584,185.6735 C207.025002,185.286498 207.2455,184.490006 207.2455,183.284 C207.2455,182.113994 207.011502,181.322002 206.5435,180.908 Z M203.7625,188.414 C202.196492,188.432 201.152503,188.661498 200.6305,189.1025 C200.108497,189.543502 199.8475,190.429993 199.8475,191.762 C199.8475,193.004006 200.108497,193.849998 200.6305,194.3 C201.152503,194.750002 202.187492,194.975 203.7355,194.975 C205.265508,194.975 206.282497,194.750002 206.7865,194.3 C207.290503,193.849998 207.5425,193.004006 207.5425,191.762 C207.5425,190.411993 207.295002,189.516502 206.8,189.0755 C206.304998,188.634498 205.292508,188.414 203.7625,188.414 Z" id="2018" fill="#FFFFFF"></path>
    </g>
</svg>