<svg xmlns="http://www.w3.org/2000/svg" viewBox="0 0 1920 1080"><defs><style>.a{fill:#321464;}.b{opacity:0.8;}.c{fill:#875ac8;}</style></defs><title>background</title><rect class="a" width="1920" height="1080"/><g class="b"><path class="c" d="M161.7,535.67c-2.45-1.41-20-9.12-21.27-9.83s-25.18,2.61-25.18,2.61-13.92,7.11-14.78,7.2-15.66,14.41-15.66,14.41l1,3.87s24.41,21.53,25.49,21.7,25.83,12.86,26.8,13.81,24.87,9,24.87,9l9.19-15.93-.34-15.43-4.59-18.44Z"/><path class="c" d="M95,530l-7.76,11.56-7.54-1.09-7.4,7.16L82,560.57l27.15,22.75,30.77,15L161.14,605l11.42-.13,3.41-7-3.87-8.09L179,577s6.25,7.14,7.66,8.83,9.06,16.73,9.06,16.73l-3.53,14-8,3.67-20.74-.47-28-8.5-33.81-17.74L80,577.46,57,557l-2.85-17.63L58.41,530l10.14-4.07,15.07.46Z"/><path class="c" d="M83.4,587.3l16.76,13.63s24.44,11.77,25.66,12.89,11.46,4.6,11.46,4.6l-17.51,1.35L97.4,612.54,84.85,594.85Z"/><polygon class="c" points="96.5 320.5 90 324.75 91.5 334.5 100 330.9 96.5 320.5"/><polygon class="c" points="70 366 61 373 66 380 72.04 375.94 70 366"/><polygon class="c" points="86 402 100 407 91 414 86 409 86 402"/><polygon class="c" points="39 447 34 452 39 460 47 453 39 447"/><polygon class="c" points="132 447 143 446 143 456.5 135 460 132 447"/><polygon class="c" points="86 650 96 653 94.33 663 86 663 86 650"/><polygon class="c" points="118 676 116 689 126 689 126 679 118 676"/><polygon class="c" points="201 689 211 686 211 701 206 699 201 689"/><polygon class="c" points="160 754 160 741 170 741 172 754 160 754"/><polygon class="c" points="82 796 93 800 92 811 82 808 82 796"/><polygon class="c" points="211 775 223 775 221 786 214.46 783.54 211 775"/><polygon class="c" points="139 817 134 824.67 139 827 144 822 139 817"/><polygon class="c" points="121 875 120 889 130 887.67 130 880.33 121 875"/><polygon class="c" points="33 904 34.67 917 43 917 44 908 33 904"/><g class="b"><polygon class="c" points="55.5 726.5 49 730.75 50.5 740.5 59 736.9 55.5 726.5"/><polygon class="c" points="97 956 88 963 93 970 99.04 965.94 97 956"/><polygon class="c" points="88 498 102 503 93 510 88 505 88 498"/><polygon class="c" points="66 1037 61 1042 66 1050 74 1043 66 1037"/><polygon class="c" points="159 1037 170 1036 170 1046.5 162 1050 159 1037"/><polygon class="c" points="118 16 128 19 126.33 29 118 29 118 16"/><polygon class="c" points="150 42 148 55 158 55 158 45 150 42"/><polygon class="c" points="72 62 82 59 82 74 77 72 72 62"/><polygon class="c" points="31 127 31 114 41 114 43 127 31 127"/><polygon class="c" points="114 171 125 175 124 186 114 183 114 171"/><polygon class="c" points="61 190 73 190 71 201 64.46 198.54 61 190"/><polygon class="c" points="171 183 166 190.67 171 193 176 188 171 183"/><polygon class="c" points="153 241 152 255 162 253.67 162 246.33 153 241"/><polygon class="c" points="65 270 66.67 283 75 283 76 274 65 270"/></g></g><g class="b"><path class="c" d="M1758.3,535.67c2.45-1.41,20-9.12,21.27-9.83s25.18,2.61,25.18,2.61,13.92,7.11,14.78,7.2,15.66,14.41,15.66,14.41l-1,3.87s-24.41,21.53-25.49,21.7-25.83,12.86-26.8,13.81-24.87,9-24.87,9l-9.19-15.93.34-15.43,4.59-18.44Z"/><path class="c" d="M1825,530l7.76,11.56,7.54-1.09,7.4,7.16L1838,560.57l-27.15,22.75-30.77,15L1758.86,605l-11.42-.13-3.41-7,3.87-8.09L1741,577s-6.25,7.14-7.66,8.83-9.06,16.73-9.06,16.73l3.53,14,8,3.67,20.74-.47,28-8.5,33.81-17.74,21.58-16L1863,557l2.85-17.63-4.26-9.38-10.14-4.07-15.07.46Z"/><path class="c" d="M1836.6,587.3l-16.76,13.63s-24.44,11.77-25.66,12.89-11.46,4.6-11.46,4.6l17.51,1.35,22.37-7.23,12.55-17.69Z"/><polygon class="c" points="1823.5 320.5 1830 324.75 1828.5 334.5 1820 330.9 1823.5 320.5"/><polygon class="c" points="1850 366 1859 373 1854 380 1847.96 375.94 1850 366"/><polygon class="c" points="1834 402 1820 407 1829 414 1834 409 1834 402"/><polygon class="c" points="1881 447 1886 452 1881 460 1873 453 1881 447"/><polygon class="c" points="1788 447 1777 446 1777 456.5 1785 460 1788 447"/><polygon class="c" points="1834 650 1824 653 1825.67 663 1834 663 1834 650"/><polygon class="c" points="1802 676 1804 689 1794 689 1794 679 1802 676"/><polygon class="c" points="1719 689 1709 686 1709 701 1714 699 1719 689"/><polygon class="c" points="1760 754 1760 741 1750 741 1748 754 1760 754"/><polygon class="c" points="1838 796 1827 800 1828 811 1838 808 1838 796"/><polygon class="c" points="1709 775 1697 775 1699 786 1705.54 783.54 1709 775"/><polygon class="c" points="1781 817 1786 824.67 1781 827 1776 822 1781 817"/><polygon class="c" points="1799 875 1800 889 1790 887.67 1790 880.33 1799 875"/><polygon class="c" points="1887 904 1885.33 917 1877 917 1876 908 1887 904"/><g class="b"><polygon class="c" points="1864.5 726.5 1871 730.75 1869.5 740.5 1861 736.9 1864.5 726.5"/><polygon class="c" points="1823 956 1832 963 1827 970 1820.96 965.94 1823 956"/><polygon class="c" points="1832 498 1818 503 1827 510 1832 505 1832 498"/><polygon class="c" points="1854 1037 1859 1042 1854 1050 1846 1043 1854 1037"/><polygon class="c" points="1761 1037 1750 1036 1750 1046.5 1758 1050 1761 1037"/><polygon class="c" points="1802 16 1792 19 1793.67 29 1802 29 1802 16"/><polygon class="c" points="1770 42 1772 55 1762 55 1762 45 1770 42"/><polygon class="c" points="1848 62 1838 59 1838 74 1843 72 1848 62"/><polygon class="c" points="1889 127 1889 114 1879 114 1877 127 1889 127"/><polygon class="c" points="1806 171 1795 175 1796 186 1806 183 1806 171"/><polygon class="c" points="1859 190 1847 190 1849 201 1855.54 198.54 1859 190"/><polygon class="c" points="1749 183 1754 190.67 1749 193 1744 188 1749 183"/><polygon class="c" points="1790 241 1791 255 1781 253.67 1781 246.33 1790 241"/><polygon class="c" points="1855 270 1853.33 283 1845 283 1844 274 1855 270"/></g></g></svg>