<svg id="Layer_1" data-name="Layer 1" xmlns="http://www.w3.org/2000/svg" viewBox="0 0 1920 840"><defs><style>.cls-1{fill:#321464;}.cls-2{opacity:0.8;}.cls-3{fill:#875ac8;}</style></defs><title>background</title><rect class="cls-1" width="1920" height="840"/><g class="cls-2"><path class="cls-3" d="M161.7,325.67c-2.45-1.41-20-9.12-21.27-9.83s-25.18,2.61-25.18,2.61-13.92,7.11-14.78,7.2-15.66,14.41-15.66,14.41l1,3.87s24.41,21.53,25.49,21.7,25.83,12.86,26.8,13.81,24.87,9,24.87,9l9.19-15.93-.34-15.43-4.59-18.44Z"/><path class="cls-3" d="M95,320l-7.76,11.56-7.54-1.09-7.4,7.16L82,350.57l27.15,22.75,30.77,15L161.14,395l11.42-.13,3.41-7-3.87-8.09L179,367s6.25,7.14,7.66,8.83,9.06,16.73,9.06,16.73l-3.53,14-8,3.67-20.74-.47-28-8.5-33.81-17.74L80,367.46,57,347l-2.85-17.63L58.41,320l10.14-4.07,15.07.46Z"/><path class="cls-3" d="M83.4,377.3l16.76,13.63s24.44,11.77,25.66,12.89,11.46,4.6,11.46,4.6l-17.51,1.35L97.4,402.54,84.85,384.85Z"/><polygon class="cls-3" points="96.5 110.5 90 114.75 91.5 124.5 100 120.9 96.5 110.5"/><polygon class="cls-3" points="70 156 61 163 66 170 72.04 165.94 70 156"/><polygon class="cls-3" points="324 215 315 222 320 229 326.04 224.94 324 215"/><polygon class="cls-3" points="306 371 320 376 311 383 306 378 306 371"/><polygon class="cls-3" points="39 237 34 242 39 250 47 243 39 237"/><polygon class="cls-3" points="147 244 158 243 158 253.5 150 257 147 244"/><polygon class="cls-3" points="266 115 277 114 277 124.5 269 128 266 115"/><polygon class="cls-3" points="56 433 66 436 64.33 446 56 446 56 433"/><polygon class="cls-3" points="316 735 326 738 324.33 748 316 748 316 735"/><polygon class="cls-3" points="305 556 315 559 313.33 569 305 569 305 556"/><polygon class="cls-3" points="113 485 111 498 121 498 121 488 113 485"/><polygon class="cls-3" points="189 812 187 825 197 825 197 815 189 812"/><polygon class="cls-3" points="201 479 211 476 211 491 206 489 201 479"/><polygon class="cls-3" points="160 544 160 531 170 531 172 544 160 544"/><polygon class="cls-3" points="82 586 93 590 92 601 82 598 82 586"/><polygon class="cls-3" points="223 588 235 588 233 599 226.46 596.54 223 588"/><polygon class="cls-3" points="139 607 134 614.67 139 617 144 612 139 607"/><polygon class="cls-3" points="121 665 120 679 130 677.67 130 670.33 121 665"/><polygon class="cls-3" points="211 743 210 757 220 755.67 220 748.33 211 743"/><polygon class="cls-3" points="33 694 34.67 707 43 707 44 698 33 694"/><polygon class="cls-3" points="55.5 516.5 49 520.75 50.5 530.5 59 526.9 55.5 516.5"/><polygon class="cls-3" points="271.5 501.5 265 505.75 266.5 515.5 275 511.9 271.5 501.5"/><polygon class="cls-3" points="327.5 449.5 321 453.75 322.5 463.5 331 459.9 327.5 449.5"/><polygon class="cls-3" points="106 724 97 731 102 738 108.04 733.94 106 724"/><polygon class="cls-3" points="268 693 259 700 264 707 270.04 702.94 268 693"/><polygon class="cls-3" points="150 778 141 785 146 792 152.04 787.94 150 778"/><polygon class="cls-3" points="311 640 302 647 307 654 313.04 649.94 311 640"/><polygon class="cls-3" points="88 274 102 279 93 286 88 281 88 274"/><polygon class="cls-3" points="258 785 272 790 263 797 258 792 258 785"/><polygon class="cls-3" points="53 799 48 804 53 812 61 805 53 799"/><polygon class="cls-3" points="200 678 211 677 211 687.5 203 691 200 678"/><polygon class="cls-3" points="212 296 222 299 220.33 309 212 309 212 296"/><polygon class="cls-3" points="272 318 270 331 280 331 280 321 272 318"/><polygon class="cls-3" points="267 38 265 51 275 51 275 41 267 38"/><polygon class="cls-3" points="85 18 83 31 93 31 93 21 85 18"/><polygon class="cls-3" points="253 406 263 403 263 418 258 416 253 406"/><polygon class="cls-3" points="211 235 211 222 221 222 223 235 211 235"/><polygon class="cls-3" points="212 74 223 78 222 89 212 86 212 74"/><polygon class="cls-3" points="248 185 260 185 258 196 251.46 193.54 248 185"/><polygon class="cls-3" points="162 133 157 140.67 162 143 167 138 162 133"/><polygon class="cls-3" points="121 189 116 196.67 121 199 126 194 121 189"/><polygon class="cls-3" points="153 31 152 45 162 43.67 162 36.33 153 31"/><polygon class="cls-3" points="65 60 66.67 73 75 73 76 64 65 60"/></g><g class="cls-2"><path class="cls-3" d="M1758.3,325.67c2.45-1.41,20-9.12,21.27-9.83s25.18,2.61,25.18,2.61,13.92,7.11,14.78,7.2,15.66,14.41,15.66,14.41l-1,3.87s-24.41,21.53-25.49,21.7-25.83,12.86-26.8,13.81-24.87,9-24.87,9l-9.19-15.93.34-15.43,4.59-18.44Z"/><path class="cls-3" d="M1825,320l7.76,11.56,7.54-1.09,7.4,7.16L1838,350.57l-27.15,22.75-30.77,15L1758.86,395l-11.42-.13-3.41-7,3.87-8.09L1741,367s-6.25,7.14-7.66,8.83-9.06,16.73-9.06,16.73l3.53,14,8,3.67,20.74-.47,28-8.5,33.81-17.74L1840,367.46,1863,347l2.85-17.63-4.26-9.38-10.14-4.07-15.07.46Z"/><path class="cls-3" d="M1836.6,377.3l-16.76,13.63s-24.44,11.77-25.66,12.89-11.46,4.6-11.46,4.6l17.51,1.35,22.37-7.23,12.55-17.69Z"/><polygon class="cls-3" points="1823.5 110.5 1830 114.75 1828.5 124.5 1820 120.9 1823.5 110.5"/><polygon class="cls-3" points="1850 156 1859 163 1854 170 1847.96 165.94 1850 156"/><polygon class="cls-3" points="1596 215 1605 222 1600 229 1593.96 224.94 1596 215"/><polygon class="cls-3" points="1614 371 1600 376 1609 383 1614 378 1614 371"/><polygon class="cls-3" points="1881 237 1886 242 1881 250 1873 243 1881 237"/><polygon class="cls-3" points="1773 244 1762 243 1762 253.5 1770 257 1773 244"/><polygon class="cls-3" points="1628 132 1617 131 1617 141.5 1625 145 1628 132"/><polygon class="cls-3" points="1864 433 1854 436 1855.67 446 1864 446 1864 433"/><polygon class="cls-3" points="1604 735 1594 738 1595.67 748 1604 748 1604 735"/><polygon class="cls-3" points="1629 548 1619 551 1620.67 561 1629 561 1629 548"/><polygon class="cls-3" points="1807 485 1809 498 1799 498 1799 488 1807 485"/><polygon class="cls-3" points="1731 812 1733 825 1723 825 1723 815 1731 812"/><polygon class="cls-3" points="1719 479 1709 476 1709 491 1714 489 1719 479"/><polygon class="cls-3" points="1760 544 1760 531 1750 531 1748 544 1760 544"/><polygon class="cls-3" points="1838 586 1827 590 1828 601 1838 598 1838 586"/><polygon class="cls-3" points="1697 588 1685 588 1687 599 1693.54 596.54 1697 588"/><polygon class="cls-3" points="1781 607 1786 614.67 1781 617 1776 612 1781 607"/><polygon class="cls-3" points="1799 665 1800 679 1790 677.67 1790 670.33 1799 665"/><polygon class="cls-3" points="1709 743 1710 757 1700 755.67 1700 748.33 1709 743"/><polygon class="cls-3" points="1887 694 1885.33 707 1877 707 1876 698 1887 694"/><polygon class="cls-3" points="1864.5 516.5 1871 520.75 1869.5 530.5 1861 526.9 1864.5 516.5"/><polygon class="cls-3" points="1648.5 501.5 1655 505.75 1653.5 515.5 1645 511.9 1648.5 501.5"/><polygon class="cls-3" points="1592.5 449.5 1599 453.75 1597.5 463.5 1589 459.9 1592.5 449.5"/><polygon class="cls-3" points="1814 724 1823 731 1818 738 1811.96 733.94 1814 724"/><polygon class="cls-3" points="1652 693 1661 700 1656 707 1649.96 702.94 1652 693"/><polygon class="cls-3" points="1770 778 1779 785 1774 792 1767.96 787.94 1770 778"/><polygon class="cls-3" points="1609 640 1618 647 1613 654 1606.96 649.94 1609 640"/><polygon class="cls-3" points="1832 274 1818 279 1827 286 1832 281 1832 274"/><polygon class="cls-3" points="1662 785 1648 790 1657 797 1662 792 1662 785"/><polygon class="cls-3" points="1867 799 1872 804 1867 812 1859 805 1867 799"/><polygon class="cls-3" points="1720 678 1709 677 1709 687.5 1717 691 1720 678"/><polygon class="cls-3" points="1708 296 1698 299 1699.67 309 1708 309 1708 296"/><polygon class="cls-3" points="1648 318 1650 331 1640 331 1640 321 1648 318"/><polygon class="cls-3" points="1653 38 1655 51 1645 51 1645 41 1653 38"/><polygon class="cls-3" points="1835 18 1837 31 1827 31 1827 21 1835 18"/><polygon class="cls-3" points="1667 406 1657 403 1657 418 1662 416 1667 406"/><polygon class="cls-3" points="1709 235 1709 222 1699 222 1697 235 1709 235"/><polygon class="cls-3" points="1708 74 1697 78 1698 89 1708 86 1708 74"/><polygon class="cls-3" points="1672 178 1660 178 1662 189 1668.54 186.54 1672 178"/><polygon class="cls-3" points="1758 133 1763 140.67 1758 143 1753 138 1758 133"/><polygon class="cls-3" points="1799 189 1804 196.67 1799 199 1794 194 1799 189"/><polygon class="cls-3" points="1767 31 1768 45 1758 43.67 1758 36.33 1767 31"/><polygon class="cls-3" points="1855 60 1853.33 73 1845 73 1844 64 1855 60"/></g></svg>