<svg id="Layer_1" data-name="Layer 1" xmlns="http://www.w3.org/2000/svg" viewBox="0 0 250 250"><defs><style>.cls-1{fill:#b3b3b3;}.cls-2{fill:#42210b;}.cls-3{fill:#c7987f;}.cls-4{fill:#dcb9a7;}.cls-5{fill:none;stroke:#000;stroke-miterlimit:10;stroke-width:10px;}.cls-6{fill:#c1272d;}.cls-7{fill:#fff;}</style></defs><title>avi</title><circle class="cls-1" cx="125" cy="125" r="125"/><polygon class="cls-2" points="106.03 34.53 83.57 30.04 50.13 62.48 47.88 115.39 55.37 134.36 64.85 142.35 93.55 95.42 160.94 96.42 185.87 137.52 189.39 138.35 195.63 121.38 198.88 99.67 192.88 77.21 191.14 56.24 162.44 25.54 128.99 17.31 106.03 34.53"/><polygon class="cls-3" points="55.99 129.74 50.75 134.23 59.49 157.19 67.72 171.67 74.21 175.91 66.1 136.6 55.99 129.74"/><polygon class="cls-3" points="184.15 129.62 196.63 124.38 202.12 126.87 198.88 142.35 187.15 167.3 176.41 175.79 184.15 129.62"/><polygon class="cls-4" points="104.28 71.47 127.25 77.21 164.93 74.21 180.91 97.67 187.15 129.62 178.91 180.53 159.19 212.48 142.72 227.45 133.49 232.69 115.02 232.69 104.28 224.96 87.31 202.99 72.84 180.53 62.61 141.35 62.61 120.88 69.59 91.93 104.28 71.47"/><path class="cls-2" d="M136,118.75l3.49-6.49s23.21-5.24,24.46-5S175.23,114,175.23,114l1.25,7-15.72-2.25Z"/><polygon class="cls-2" points="78.77 114.13 72.03 124.61 85.01 122.37 111.22 122.87 107.72 115.13 78.77 114.13"/><polygon class="cls-5" points="68.66 126.95 71.91 145.92 78.4 153.66 95.12 155.15 111.09 152.16 117.58 140.93 117.58 130.19 108.1 123.21 86.88 123.21 68.66 126.95"/><polygon class="cls-5" points="130.77 128.69 129.81 137.18 136.05 149.41 143.54 150.91 152.02 152.41 170.74 149.41 175.23 144.17 178.98 127.95 173.49 121.21 154.27 119.71 138.46 120.99 130.77 128.69"/><line class="cls-5" x1="117.58" y1="130.2" x2="130.77" y2="128.85"/><path class="cls-2" d="M112,63.23l-8,42.18,15-38.93s-.75,39.68,0,38.93,4.24-36.94,4.24-36.94h5.49s3.24,38.68,3.49,36.94,4.49-36.19,4.49-36.19h7l4.74,31.95V71.47h5.24l4.24,31.95,3-35.44Z"/><circle class="cls-2" cx="98.24" cy="134.35" r="6.41"/><circle class="cls-2" cx="151.65" cy="131.35" r="6.41"/><polygon class="cls-6" points="102.47 195.03 148.14 189.63 143.65 206.71 109.45 208.95 102.47 195.03"/><polygon class="cls-7" points="104.48 199.04 146.79 194.55 148.14 189.63 102.47 195.03 104.48 199.04"/><polygon class="cls-3" points="116.67 163.14 117.31 173.4 125 173.4 116.67 163.14"/></svg>