<svg id="Layer_1" data-name="Layer 1" xmlns="http://www.w3.org/2000/svg" viewBox="0 0 370 700"><defs><style>.cls-1{fill:#999;}.cls-2{fill:#e63c23;}.cls-3{fill:#ccc;}.cls-4{fill:#f2f2f2;}</style></defs><title>handLeft</title><polygon class="cls-1" points="218.29 58.18 79.61 139.87 45.16 102.04 0 127.84 0 261.87 38.24 247.47 135.19 256.7 197.52 240.54 257.54 113.58 301.4 106.65 308.32 78.95 218.29 58.18"/><path class="cls-2" d="M136,700h30.83C118.87,603.71,93.18,512.38,90.4,428.26c-2.35-71,11.56-137.2,41.35-196.65C182.69,130,263.66,82.18,264.47,81.71l-6.93-12-6.92-12c-3.57,2.05-88.09,51.63-143,160.14-32.2,63.67-47.33,134.42-45,210.27C65.3,512.91,89.94,604.22,136,700Z"/><path class="cls-3" d="M205.6,110.12l-16.16,9.23v25.39l9.23,9.24-30-9.24-17.76-.27-5.32,14.12,4.62,18.47H127.11l-6.92,11.54,11.54,18.47s18.47,2.31,20.77,4.62,46.17,30,46.17,30l23.09-13.85,6.92-20.78h23.09l11.54-11.54v-27.7l20.77-2.31L291,154v-25.4l-23.08-18.46Z"/><polygon class="cls-1" points="155.97 178.21 222.91 203.61 218.29 208.22 155.97 178.21"/><polygon class="cls-1" points="204.44 155.13 239.07 162.06 257.54 162.06 252.92 171.29 204.44 155.13"/><path class="cls-4" d="M345.82,41a10.07,10.07,0,0,0,1.73-12.25l17.41-10a10.05,10.05,0,0,0-10-17.42l-17.41,10a10,10,0,0,0-11.46-4.64l-32.3,9.2,27.9,48.42Z"/><path class="cls-4" d="M252.39,93.52a9.31,9.31,0,0,0,12.72,3.42L313.53,69l-27.9-48.41L237.21,48.52a9.31,9.31,0,0,0-3.42,12.72Z"/><rect class="cls-1" x="298.95" y="14.55" width="9.38" height="55.88" transform="translate(19.33 157.26) rotate(-29.95)"/><path class="cls-3" d="M292.16,69.72,280.62,81.26V99.73s0,13.85,4.62,13.85H306l16.16-16.16-6.92-23.09Z"/><polygon class="cls-3" points="267.93 13.16 233.3 27.01 203.29 27.01 90.18 54.71 0 115.41 0 139.91 17.46 159.75 64.9 163.2 101.72 160.9 161.74 107.81 166.35 91.65 242.53 61.64 267.93 45.48 277.16 27.01 267.93 13.16"/></svg>