<svg id="Layer_1" data-name="Layer 1" xmlns="http://www.w3.org/2000/svg" viewBox="0 0 370 700"><defs><style>.cls-1{fill:#999;}.cls-2{fill:#ffd200;}.cls-3{fill:#f2f2f2;}.cls-4{fill:#0046ff;}.cls-5{fill:#ccc;}</style></defs><title>handRight</title><polygon class="cls-1" points="370 124.84 324.84 99.04 290.39 136.87 169 59 67 91 85 122 112.46 110.58 172.48 237.54 234.81 253.7 331.76 244.47 370 258.87 370 124.84"/><path class="cls-2" d="M261.3,252.43C298.55,311.77,319.64,378,324,449.14,328.77,527,313.46,611.2,278.46,700h29.7C342,610.78,356.6,525.74,351.6,446.57c-4.8-76-27.52-146.63-67.53-210C216.06,128.92,122.7,80.4,118.76,78.38l-12.61,24.67C107.06,103.51,197.49,150.74,261.3,252.43Z"/><path class="cls-3" d="M24.18,60a10.07,10.07,0,0,1-1.73-12.25L5,37.76a10.05,10.05,0,0,1,10-17.42l17.41,10a10,10,0,0,1,11.46-4.64l32.3,9.2L48.34,83.36Z"/><path class="cls-3" d="M117.61,112.52a9.31,9.31,0,0,1-12.72,3.42L56.47,88l27.9-48.41,48.42,27.89a9.31,9.31,0,0,1,3.42,12.72Z"/><rect class="cls-1" x="38.42" y="56.8" width="55.88" height="9.38" transform="translate(-20.05 88.29) rotate(-60.05)"/><path class="cls-4" d="M283.25,239.61C313,299.06,327,365.22,324.6,436.26,321.9,518,297.53,606.65,252.14,700h30.71c43.57-92.86,66.92-181.46,69.47-263.87,2.35-75.85-12.78-146.6-45-210.27C252.47,117.35,168,67.77,164.38,65.72l-13.85,24C151.34,90.18,232.31,138,283.25,239.61Z"/><path class="cls-3" d="M64.18,41a10.07,10.07,0,0,1-1.73-12.25L45,18.76a10.05,10.05,0,0,1,10-17.42l17.41,10A10,10,0,0,1,83.94,6.74l32.3,9.2L88.34,64.36Z"/><path class="cls-3" d="M157.61,93.52a9.31,9.31,0,0,1-12.72,3.42L96.47,69l27.9-48.41,48.42,27.89a9.31,9.31,0,0,1,3.42,12.72Z"/><rect class="cls-1" x="78.42" y="37.8" width="55.88" height="9.38" transform="translate(16.44 113.44) rotate(-60.05)"/><polygon class="cls-5" points="370 122.92 281.99 54.6 171.01 19.32 141.07 17.29 107.46 1.13 97.31 14.32 105.27 33.37 129.52 51.21 203.49 86.3 207 102.74 263.3 159.77 299.87 164.56 347.44 164.32 370 141.93 370 122.92"/><path class="cls-5" d="M81.84,81.72,93.38,93.26v18.47s0,13.85-4.62,13.85H68L51.83,109.42l6.92-23.09Z"/><path class="cls-5" d="M164.4,107.12l16.16,9.23v25.39L171.33,151l30-9.24,17.76-.27,5.32,14.12-4.62,18.47h23.09l6.92,11.54-11.54,18.47s-18.47,2.31-20.77,4.62-46.17,30-46.17,30l-23.09-13.85-6.92-20.78H118.23l-11.54-11.54v-27.7l-20.77-2.31L79,151v-25.4l23.08-18.46Z"/><polygon class="cls-1" points="214.03 175.21 147.09 200.61 151.71 205.22 214.03 175.21"/><polygon class="cls-1" points="165.56 152.13 130.93 159.06 112.46 159.06 117.08 168.29 165.56 152.13"/></svg>