<?xml version="1.0" encoding="UTF-8"?>
<svg width="1400px" height="98px" viewBox="0 0 1400 98" version="1.1" xmlns="http://www.w3.org/2000/svg" xmlns:xlink="http://www.w3.org/1999/xlink">
    <!-- Generator: Sketch 48.2 (47327) - http://www.bohemiancoding.com/sketch -->
    <title>Artboard Copy</title>
    <desc>Created with Sketch.</desc>
    <defs></defs>
    <g id="Page-1" stroke="none" stroke-width="1" fill="none" fill-rule="evenodd">
        <g id="Artboard-Copy" fill="#FFD200" fill-rule="nonzero">
            <polygon id="Shape" points="28.88 24.1 0 24.1 8 0 81.72 0 81.72 24.1 56.83 24.1 56.83 98.1 28.88 98.1"></polygon>
            <path d="M153.87,0 C163.32,0 170.11,7.15 170.11,17.1 L170.11,81 C170.11,91 163.32,98.09 153.87,98.09 L106,98.09 C96.5,98.09 89.71,91 89.71,81 L89.71,17.1 C89.71,7.15 96.5,0 106,0 L153.87,0 Z M142.15,74 L142.15,24.1 L117.66,24.1 L117.66,74 L142.15,74 Z" id="Shape"></path>
            <path d="M244.91,0 C254.36,0 261.15,7.15 261.15,17.1 L261.15,81 C261.15,91 254.36,98.09 244.91,98.09 L197,98.09 C187.54,98.09 180.76,90.95 180.76,81 L180.76,17.1 C180.76,7.1 187.54,0 197,0 L244.91,0 Z M233.2,74 L233.2,24.1 L208.71,24.1 L208.71,74 L233.2,74 Z" id="Shape"></path>
            <path d="M430.32,98.09 L402.37,98.09 L402.37,24.09 L380.68,24.09 L380.68,98.09 L352.73,98.09 L352.73,24.09 L331,24.09 L331,98.09 L303.08,98.09 L303.08,0 L414.08,0 C423.53,0 430.31,7.15 430.31,17.1 L430.32,98.09 Z" id="Shape"></path>
            <polygon id="Shape" points="461.08 0 508.19 0 533.48 98.09 479.18 98.09 479.18 76.79 497.41 76.79 486.76 28.31 481.44 28.31 464.8 98.09 435.65 98.09"></polygon>
            <path d="M619.87,98.09 L591.87,98.09 L591.87,24.09 L567.43,24.09 L567.43,98.09 L539.48,98.09 L539.48,0 L603.63,0 C613.08,0 619.87,7.15 619.87,17.1 L619.87,98.09 Z" id="Shape"></path>
            <path d="M630.52,98.09 L638.52,73.99 L680.7,73.99 L680.7,64.46 L645.83,64.46 C637.97,64.46 632.25,58.46 632.25,50.17 L632.25,0 L660.25,0 L660.25,40.36 L680.75,40.36 L680.75,0 L708.7,0 L708.7,81 C708.7,91 701.91,98.09 692.46,98.09 L630.52,98.09 Z" id="Shape"></path>
            <path d="M820.33,0 L812.33,24.1 L778.53,24.1 L778.53,74 L820.33,74 L812.33,98.1 L766.82,98.1 C757.37,98.1 750.58,90.96 750.58,81.01 L750.58,17.1 C750.58,7.1 757.37,0 766.82,0 L820.33,0 Z" id="Shape"></path>
            <polygon id="Shape" points="848.41 0 895.53 0 920.82 98.09 866.52 98.09 866.52 76.79 884.75 76.79 874.1 28.31 868.78 28.31 852.14 98.09 823 98.09"></polygon>
            <path d="M954.77,66.56 L954.77,98.09 L926.77,98.09 L926.77,0 L988.13,0 C997.58,0 1004.37,7.15 1004.37,17.1 L1004.37,49.47 C1004.37,59.47 997.58,66.56 988.13,66.56 L954.77,66.56 Z M976.59,44.56 L976.59,24.1 L954.77,24.1 L954.77,44.56 L976.59,44.56 Z" id="Shape"></path>
            <polygon id="Shape" points="1036 24.1 1007.12 24.1 1015.12 0 1088.86 0 1088.86 24.1 1063.97 24.1 1063.97 98.1 1035.97 98.1"></polygon>
            <polygon id="Shape" points="1116.89 0 1164 0 1189.28 98.09 1135 98.09 1135 76.79 1153.24 76.79 1142.59 28.31 1137.26 28.31 1120.62 98.09 1091.48 98.09"></polygon>
            <polygon id="Shape" points="1195.29 0 1223.29 0 1223.29 98.09 1195.29 98.09"></polygon>
            <path d="M1315.61,98.09 L1287.66,98.09 L1287.66,24.09 L1263.17,24.09 L1263.17,98.09 L1235.17,98.09 L1235.17,0 L1299.32,0 C1308.77,0 1315.56,7.15 1315.56,17.1 L1315.61,98.09 Z" id="Shape"></path>
            <path d="M1322.27,98.09 L1330.27,73.99 L1370.73,73.99 L1370.73,59.42 L1342.5,59.42 C1333.05,59.42 1326.26,52.27 1326.26,42.32 L1326.26,17.1 C1326.26,7.1 1333.05,0 1342.5,0 L1400,0 L1392,24.1 L1354.2,24.1 L1354.2,38.68 L1382.42,38.68 C1391.87,38.68 1398.66,45.82 1398.66,55.77 L1398.66,81 C1398.66,91 1391.87,98.09 1382.42,98.09 L1322.27,98.09 Z" id="Shape"></path>
        </g>
    </g>
</svg>