<?xml version="1.0" encoding="UTF-8"?>
<svg width="1400px" height="83px" viewBox="0 0 1400 83" version="1.1" xmlns="http://www.w3.org/2000/svg" xmlns:xlink="http://www.w3.org/1999/xlink">
    <!-- Generator: Sketch 48.2 (47327) - http://www.bohemiancoding.com/sketch -->
    <title>Artboard</title>
    <desc>Created with Sketch.</desc>
    <defs></defs>
    <g id="Page-1" stroke="none" stroke-width="1" fill="none" fill-rule="evenodd">
        <g id="Artboard" fill-rule="nonzero">
            <polygon id="Shape" fill="#19A0D2" points="21.07 5.59 60.07 5.59 81.07 83 36.07 83 36.07 66.19 51.18 66.19 42.35 27.93 37.94 27.93 24.15 83 0 83"></polygon>
            <path d="M153.74,83 L130.58,83 L130.58,24.61 L110.29,24.61 L110.29,83 L87.13,83 L87.13,5.59 L140.29,5.59 C148.12,5.59 153.74,11.23 153.74,19.08 L153.74,83 Z" id="Shape" fill="#19A0D2"></path>
            <path d="M164.22,83 L164.22,5.59 L215.17,5.59 C223,5.59 228.63,11.23 228.63,19.08 L228.63,69.51 C228.63,77.36 223,83 215.17,83 L164.22,83 Z M205.47,64 L205.47,24.61 L187.38,24.61 L187.38,64 L205.47,64 Z" id="Shape" fill="#19A0D2"></path>
            <path d="M332.19,83 L309,83 L309,24.61 L288.7,24.61 L288.7,83 L265.57,83 L265.57,5.59 L318.73,5.59 C326.56,5.59 332.19,11.23 332.19,19.08 L332.19,83 Z" id="Shape" fill="#E63C23"></path>
            <path d="M395.27,5.59 C403.1,5.59 408.73,11.23 408.73,19.08 L408.73,69.51 C408.73,77.36 403.1,83 395.27,83 L355.57,83 C347.74,83 342.11,77.36 342.11,69.51 L342.11,19.08 C342.11,11.23 347.74,5.59 355.57,5.59 L395.27,5.59 Z M385.57,64 L385.57,24.61 L365.27,24.61 L365.27,64 L385.57,64 Z" id="Shape" fill="#E63C23"></path>
            <polygon id="Shape" fill="#E63C23" points="437.07 24.61 413.14 24.61 419.75 5.61 480.86 5.61 480.86 24.61 460.23 24.61 460.23 83 437.07 83"></polygon>
            <polygon id="Shape" fill="#E63C23" points="517.25 5.59 576.14 5.59 569.53 24.59 540.41 24.59 540.41 36.53 569.53 36.53 569.53 51.13 540.41 51.13 540.41 64 576.14 64 569.53 83 517.25 83"></polygon>
            <path d="M652.13,83 L629,83 L629,24.61 L608.68,24.61 L608.68,83 L585.52,83 L585.52,5.59 L638.68,5.59 C646.51,5.59 652.13,11.23 652.13,19.08 L652.13,83 Z" id="Shape" fill="#E63C23"></path>
            <path d="M715.22,5.59 C723.05,5.59 728.67,11.23 728.67,19.08 L728.67,69.51 C728.67,77.36 723.05,83 715.22,83 L675.51,83 C667.68,83 662.06,77.36 662.06,69.51 L662.06,19.08 C662.06,11.23 667.68,5.59 675.51,5.59 L715.22,5.59 Z M705.51,64 L705.51,24.61 L685.22,24.61 L685.22,64 L705.51,64 Z" id="Shape" fill="#E63C23"></path>
            <path d="M738.6,5.59 L761.76,5.59 L761.76,64 L781,64 L781,5.59 L804.16,5.59 L804.16,83 L749.85,83 C746.83269,83.0958677 743.910528,81.937236 741.778736,79.7997584 C739.646943,77.6622809 738.496097,74.737044 738.6,71.72 L738.6,5.59 Z" id="Shape" fill="#E63C23"></path>
            <path d="M828,83 C820.17,83 814.54,77.36 814.54,69.51 L814.54,19.08 C814.54,11.23 820.17,5.59 828,5.59 L877.85,5.59 L871.23,24.59 L837.74,24.59 L837.74,64 L856.93,64 L856.93,52 L845.68,52 L850.98,36.73 L876.68,36.73 L876.68,83 L828,83 Z" id="Shape" fill="#E63C23"></path>
            <polygon id="Shape" fill="#E63C23" points="887.26 5.59 910.42 5.59 910.42 34.89 930.72 34.89 930.72 5.59 953.88 5.59 953.88 83 930.72 83 930.72 53.81 910.42 53.81 910.42 83 887.26 83"></polygon>
            <path d="M990.82,5.59 L1014,5.59 L1014,64 L1032,64 L1032,5.59 L1055.16,5.59 L1055.16,64 L1073.16,64 L1073.16,5.59 L1096.32,5.59 L1096.32,83 L1004.32,83 C996.49,83 990.86,77.36 990.86,69.51 L990.82,5.59 Z" id="Shape" fill="#E63C23"></path>
            <polygon id="Shape" fill="#E63C23" points="1107.29 5.59 1130.45 5.59 1130.45 83 1107.29 83"></polygon>
            <path d="M1206.88,39.43 C1206.98092,42.4461989 1205.82911,45.3696834 1203.69799,47.5064912 C1201.56686,49.643299 1198.64646,50.8028878 1195.63,50.71 L1194.63,50.71 L1211.63,83 L1187.8,83 L1167.17,41.2 L1183.72,41.2 L1183.72,24.61 L1164.64,24.61 L1164.64,83 L1141.47,83 L1141.47,5.59 L1193.47,5.59 C1201.3,5.59 1206.93,11.23 1206.93,19.08 L1206.88,39.43 Z" id="Shape" fill="#E63C23"></path>
            <polygon id="Shape" fill="#E63C23" points="1219.34 5.59 1278.23 5.59 1271.62 24.59 1242.5 24.59 1242.5 36.53 1271.62 36.53 1271.62 51.13 1242.5 51.13 1242.5 64 1278.23 64 1271.62 83 1219.34 83"></polygon>
            <rect id="Rectangle-path" fill="#E63C23" x="1314.08" y="66.19" width="20.96" height="16.81"></rect>
            <path d="M1332.54,16.4 C1332.09396,14.5918673 1330.47234,13.3209768 1328.61,13.32 L1328.61,5.19 C1328.61,2.94772392 1326.79228,1.13 1324.55,1.13 C1322.30772,1.13 1320.49,2.94772392 1320.49,5.19 L1320.49,13.32 C1318.62766,13.3209768 1317.00604,14.5918673 1316.56,16.4 L1313.27,29.59 L1335.83,29.59 L1332.54,16.4 Z" id="Shape" fill="#E6E6E6"></path>
            <path d="M1332.07,59.78 C1333.06895,59.7800035 1334.02684,59.3824894 1334.73226,58.6751883 C1335.43769,57.9678872 1335.83266,57.0089455 1335.83,56.01 L1335.83001,33.39 L1313.26999,33.39 L1313.27,56 C1313.26734,56.9989455 1313.66231,57.9578872 1314.36774,58.6651883 C1315.07316,59.3724894 1316.03105,59.7700035 1317.03,59.77 L1332.07,59.78 Z" id="Shape" fill="#E6E6E6"></path>
            <rect id="Rectangle-path" fill="#999999" x="1313.27" y="29.59" width="22.56" height="3.8"></rect>
            <rect id="Rectangle-path" fill="#FFFF00" x="1346.06" y="66.19" width="20.96" height="16.81"></rect>
            <path d="M1364.63,16.4 C1364.17987,14.5903158 1362.55483,13.3199767 1360.69,13.32 L1360.69,5.19 C1360.76435,3.69324328 1360.00815,2.27723988 1358.72289,1.50657002 C1357.43764,0.735900165 1355.83236,0.735900165 1354.54711,1.50657002 C1353.26185,2.27723988 1352.50565,3.69324328 1352.58,5.19 L1352.58,13.32 C1350.71766,13.3209768 1349.09604,14.5918673 1348.65,16.4 L1345.36,29.59 L1367.92,29.59 L1364.63,16.4 Z" id="Shape" fill="#E6E6E6"></path>
            <path d="M1364.16,59.78 C1366.23821,59.7744875 1367.92001,58.0882145 1367.92,56.01 L1367.92,33.39 L1345.35999,33.39 L1345.36,56 C1345.35734,56.9989455 1345.75231,57.9578872 1346.45774,58.6651883 C1347.16316,59.3724894 1348.12105,59.7700035 1349.12,59.77 L1364.16,59.78 Z" id="Shape" fill="#E6E6E6"></path>
            <rect id="Rectangle-path" fill="#999999" x="1345.36" y="29.59" width="22.56" height="3.8"></rect>
            <rect id="Rectangle-path" fill="#19A0D2" x="1378.04" y="66.19" width="20.96" height="16.81"></rect>
            <path d="M1396.71,16.4 C1396.26396,14.5918673 1394.64234,13.3209768 1392.78,13.32 L1392.78,5.19 C1392.78,2.94772392 1390.96228,1.13 1388.72,1.13 C1386.47772,1.13 1384.66,2.94772392 1384.66,5.19 L1384.66,13.32 C1382.79766,13.3209768 1381.17604,14.5918673 1380.73,16.4 L1377.44,29.59 L1400,29.59 L1396.71,16.4 Z" id="Shape" fill="#E6E6E6"></path>
            <path d="M1396.24,59.78 C1397.24069,59.7800142 1398.2001,59.3811282 1398.90582,58.6716599 C1399.61153,57.9621915 1400.00532,57.0006748 1400,56 L1400.00005,33.39 L1377.43999,33.39 L1377.44,56 C1377.43734,56.9989455 1377.83231,57.9578872 1378.53774,58.6651883 C1379.24316,59.3724894 1380.20105,59.7700035 1381.2,59.77 L1396.24,59.78 Z" id="Shape" fill="#E6E6E6"></path>
            <rect id="Rectangle-path" fill="#999999" x="1377.44" y="29.59" width="22.56" height="3.8"></rect>
        </g>
    </g>
</svg>