<?xml version="1.0" encoding="UTF-8"?>
<svg width="1920px" height="332px" viewBox="0 0 1920 332" version="1.1" xmlns="http://www.w3.org/2000/svg" xmlns:xlink="http://www.w3.org/1999/xlink">
    <!-- Generator: Sketch 48.2 (47327) - http://www.bohemiancoding.com/sketch -->
    <title>Mobile</title>
    <desc>Created with Sketch.</desc>
    <defs></defs>
    <g id="Page-1" stroke="none" stroke-width="1" fill="none" fill-rule="evenodd">
        <g id="Mobile">
            <g id="Page-1">
                <polygon id="Fill-1" fill="#000000" points="273.7503 -0.0001 0.0003 199.9999 0.0003 331.9999 1919.9993 331.9999 1919.9993 199.9999 1646.2503 -0.0001"></polygon>
                <g id="Group-10" opacity="0.5" transform="translate(355.000000, 0.000000)">
                    <path d="M46.1001,0 L0.2001,92.02 C0.2001,92.02 136.1001,193.765 139.7001,198.253 C143.3001,202.742 148.7001,277.555 148.7001,277.555 L231.5001,291.021 L315.2001,168.328 L250.4001,74.064 L272.9001,0 L46.1001,0 Z" id="Fill-2" fill="#E63C23"></path>
                    <path d="M531.1997,0 L310.6997,0 L353.8247,130.922 L330.1467,240.148 L387.4817,262.592 C387.4817,262.592 583.5817,151.869 576.9347,149.625 C570.2867,147.381 517.9377,100.997 517.9377,100.997 L556.9917,15.711 L531.1997,0 Z" id="Fill-4" fill="#F09100"></path>
                    <polygon id="Fill-6" fill="#19A0D2" points="653.5996 0 869.5996 0 921.7996 66.583 838.9996 123.44 921.7996 235.659 680.5996 285.035 610.3996 249.126 661.7006 192.269 586.0996 118.952"></polygon>
                    <path d="M949.7002,0 L1001.0002,128.678 C1001.0002,128.678 925.3992,155.61 932.5992,156.358 C939.8002,157.106 1123.3992,262.592 1123.3992,262.592 L1234.0992,231.171 L1137.8002,172.816 L1185.5002,62.095 L1209.8002,0 L949.7002,0 Z" id="Fill-8" fill="#46A523"></path>
                </g>
            </g>
        </g>
    </g>
</svg>