<svg id="Layer_1" data-name="Layer 1" xmlns="http://www.w3.org/2000/svg" viewBox="0 0 1920 400"><defs><style>.cls-1{fill:#7f1e14;}.cls-2{fill:#7f4800;}.cls-3{fill:#11687f;}.cls-4{fill:#2e6617;}</style></defs><title>table</title><polygon points="1660 0 260 0 0 400 1920 400 1660 0"/><path class="cls-1" d="M339,0,288,123S439,259,443,265s10,106,10,106l92,18,93-164L566,99,591,0Z"/><path class="cls-2" d="M878,0H633l47.92,175L654.61,321l63.7,30S936.2,203,928.82,200s-65.56-65-65.56-65l43.4-114Z"/><polygon class="cls-3" points="1014 0 1254 0 1312 89 1220 165 1312 315 1044 381 966 333 1023 257 939 159 1014 0"/><path class="cls-4" d="M1343,0l57,172s-84,36-76,37,212,142,212,142l123-42-107-78,53-148,27-83Z"/></svg>