<svg id="Layer_1" data-name="Layer 1" xmlns="http://www.w3.org/2000/svg" viewBox="0 0 1920 320"><defs><style>.cls-1{opacity:0.5;}.cls-2{fill:#e63c23;}.cls-3{fill:#f09100;}.cls-4{fill:#19a0d2;}.cls-5{fill:#46a523;}</style></defs><title>table-resize</title><polygon points="1570 0 350 0 0 320 1920 320 1570 0"/><g class="cls-1"><path class="cls-2" d="M452.4,0,411.6,98.4S532.4,207.2,535.6,212s8,84.8,8,84.8l73.6,14.4L691.6,180,634,79.2,654,0Z"/><path class="cls-3" d="M883.6,0h-196l38.33,140-21,116.8,51,24S930.16,162.4,924.25,160s-52.44-52-52.44-52l34.72-91.2Z"/><polygon class="cls-4" points="992.4 0 1184.4 0 1230.8 71.2 1157.2 132 1230.8 252 1016.4 304.8 954 266.4 999.6 205.6 932.4 127.2 992.4 0"/><path class="cls-5" d="M1255.6,0l45.6,137.6s-67.2,28.8-60.8,29.6S1410,280.8,1410,280.8l98.4-33.6-85.6-62.4,42.4-118.4L1486.8,0Z"/></g></svg>