<svg id="Layer_1" data-name="Layer 1" xmlns="http://www.w3.org/2000/svg" viewBox="0 0 1400 190"><defs><style>.cls-1{fill:#ffd200;}.cls-2{fill:#19a0d2;}.cls-3{fill:#e63c23;}.cls-4{fill:#e6e6e6;}.cls-5{fill:#999;}.cls-6{fill:#ff0;}</style></defs><title>title</title><path class="cls-1" d="M28.88,24.1H0L8,0H81.72V24.1H56.83v74H28.88Z"/><path class="cls-1" d="M153.87,0c9.45,0,16.24,7.15,16.24,17.1V81c0,10-6.79,17.09-16.24,17.09H106C96.5,98.09,89.71,91,89.71,81V17.1C89.71,7.15,96.5,0,106,0ZM142.15,74V24.1H117.66V74Z"/><path class="cls-1" d="M244.91,0c9.45,0,16.24,7.15,16.24,17.1V81c0,10-6.79,17.09-16.24,17.09H197c-9.46,0-16.24-7.14-16.24-17.09V17.1c0-10,6.78-17.1,16.24-17.1ZM233.2,74V24.1H208.71V74Z"/><path class="cls-1" d="M430.32,98.09H402.37v-74H380.68v74H352.73v-74H331v74H303.08V0h111c9.45,0,16.23,7.15,16.23,17.1Z"/><path class="cls-1" d="M461.08,0h47.11l25.29,98.09h-54.3V76.79h18.23L486.76,28.31h-5.32L464.8,98.09H435.65Z"/><path class="cls-1" d="M619.87,98.09h-28v-74H567.43v74H539.48V0h64.15c9.45,0,16.24,7.15,16.24,17.1Z"/><path class="cls-1" d="M630.52,98.09l8-24.1H680.7V64.46H645.83c-7.86,0-13.58-6-13.58-14.29V0h28V40.36h20.5V0h27.95V81c0,10-6.79,17.09-16.24,17.09Z"/><path class="cls-1" d="M820.33,0l-8,24.1H778.53V74h41.8l-8,24.1H766.82c-9.45,0-16.24-7.14-16.24-17.09V17.1c0-10,6.79-17.1,16.24-17.1Z"/><path class="cls-1" d="M848.41,0h47.12l25.29,98.09h-54.3V76.79h18.23L874.1,28.31h-5.32L852.14,98.09H823Z"/><path class="cls-1" d="M954.77,66.56V98.09h-28V0h61.36c9.45,0,16.24,7.15,16.24,17.1V49.47c0,10-6.79,17.09-16.24,17.09Zm21.82-22V24.1H954.77V44.56Z"/><path class="cls-1" d="M1036,24.1h-28.88l8-24.1h73.74V24.1h-24.89v74h-28Z"/><path class="cls-1" d="M1116.89,0H1164l25.28,98.09H1135V76.79h18.24l-10.65-48.48h-5.33l-16.64,69.78h-29.14Z"/><path class="cls-1" d="M1195.29,0h28V98.09h-28Z"/><path class="cls-1" d="M1315.61,98.09h-27.95v-74h-24.49v74h-28V0h64.15c9.45,0,16.24,7.15,16.24,17.1Z"/><path class="cls-1" d="M1322.27,98.09l8-24.1h40.46V59.42H1342.5c-9.45,0-16.24-7.15-16.24-17.1V17.1c0-10,6.79-17.1,16.24-17.1H1400l-8,24.1h-37.8V38.68h28.22c9.45,0,16.24,7.14,16.24,17.09V81c0,10-6.79,17.09-16.24,17.09Z"/><path class="cls-2" d="M21.07,112.59h39l21,77.41h-45V173.19H51.18l-8.83-38.26H37.94L24.15,190H0Z"/><path class="cls-2" d="M153.74,190H130.58V131.61H110.29V190H87.13V112.59h53.16c7.83,0,13.45,5.64,13.45,13.49Z"/><path class="cls-2" d="M164.22,190V112.59h50.95c7.83,0,13.46,5.64,13.46,13.49v50.43c0,7.85-5.63,13.49-13.46,13.49Zm41.25-19V131.61H187.38V171Z"/><path class="cls-3" d="M332.19,190H309V131.61h-20.3V190H265.57V112.59h53.16c7.83,0,13.46,5.64,13.46,13.49Z"/><path class="cls-3" d="M395.27,112.59c7.83,0,13.46,5.64,13.46,13.49v50.43c0,7.85-5.63,13.49-13.46,13.49h-39.7c-7.83,0-13.46-5.64-13.46-13.49V126.08c0-7.85,5.63-13.49,13.46-13.49ZM385.57,171V131.61h-20.3V171Z"/><path class="cls-3" d="M437.07,131.61H413.14l6.61-19h61.11v19H460.23V190H437.07Z"/><path class="cls-3" d="M517.25,112.59h58.89l-6.61,19H540.41v11.94h29.12v14.6H540.41V171h35.73l-6.61,19H517.25Z"/><path class="cls-3" d="M652.13,190H629V131.61H608.68V190H585.52V112.59h53.16c7.83,0,13.45,5.64,13.45,13.49Z"/><path class="cls-3" d="M715.22,112.59c7.83,0,13.45,5.64,13.45,13.49v50.43c0,7.85-5.62,13.49-13.45,13.49H675.51c-7.83,0-13.45-5.64-13.45-13.49V126.08c0-7.85,5.62-13.49,13.45-13.49ZM705.51,171V131.61H685.22V171Z"/><path class="cls-3" d="M738.6,112.59h23.16V171H781V112.59h23.16V190H749.85a10.91,10.91,0,0,1-11.25-11.28Z"/><path class="cls-3" d="M828,190c-7.83,0-13.46-5.64-13.46-13.49V126.08c0-7.85,5.63-13.49,13.46-13.49h49.85l-6.62,19H837.74V171h19.19V159H845.68l5.3-15.27h25.7V190Z"/><path class="cls-3" d="M887.26,112.59h23.16v29.3h20.3v-29.3h23.16V190H930.72V160.81h-20.3V190H887.26Z"/><path class="cls-3" d="M990.82,112.59H1014V171h18V112.59h23.16V171h18V112.59h23.16V190h-92c-7.83,0-13.46-5.64-13.46-13.49Z"/><path class="cls-3" d="M1107.29,112.59h23.16V190h-23.16Z"/><path class="cls-3" d="M1206.88,146.43a10.92,10.92,0,0,1-11.25,11.28h-1l17,32.29H1187.8l-20.63-41.8h16.55V131.61h-19.08V190h-23.17V112.59h52c7.83,0,13.46,5.64,13.46,13.49Z"/><path class="cls-3" d="M1219.34,112.59h58.89l-6.61,19H1242.5v11.94h29.12v14.6H1242.5V171h35.73l-6.61,19h-52.28Z"/><rect class="cls-3" x="1314.08" y="173.19" width="20.96" height="16.81"/><path class="cls-4" d="M1332.54,123.4a4.05,4.05,0,0,0-3.93-3.08v-8.13a4.06,4.06,0,1,0-8.12,0v8.13a4.05,4.05,0,0,0-3.93,3.08l-3.29,13.19h22.56Z"/><path class="cls-4" d="M1332.07,166.78a3.76,3.76,0,0,0,3.76-3.77V140.39h-22.56V163a3.76,3.76,0,0,0,3.76,3.77Z"/><rect class="cls-5" x="1313.27" y="136.59" width="22.56" height="3.8"/><rect class="cls-6" x="1346.06" y="173.19" width="20.96" height="16.81"/><path class="cls-4" d="M1364.63,123.4a4.06,4.06,0,0,0-3.94-3.08v-8.13a4.06,4.06,0,1,0-8.11,0v8.13a4.05,4.05,0,0,0-3.93,3.08l-3.29,13.19h22.56Z"/><path class="cls-4" d="M1364.16,166.78a3.77,3.77,0,0,0,3.76-3.77V140.39h-22.56V163a3.76,3.76,0,0,0,3.76,3.77Z"/><rect class="cls-5" x="1345.36" y="136.59" width="22.56" height="3.8"/><rect class="cls-2" x="1378.04" y="173.19" width="20.96" height="16.81"/><path class="cls-4" d="M1396.71,123.4a4.05,4.05,0,0,0-3.93-3.08v-8.13a4.06,4.06,0,1,0-8.12,0v8.13a4.05,4.05,0,0,0-3.93,3.08l-3.29,13.19H1400Z"/><path class="cls-4" d="M1396.24,166.78A3.76,3.76,0,0,0,1400,163V140.39h-22.56V163a3.76,3.76,0,0,0,3.76,3.77Z"/><rect class="cls-5" x="1377.44" y="136.59" width="22.56" height="3.8"/></svg>